<svg width="128" height="85" viewBox="0 0 128 85" fill="none" xmlns="http://www.w3.org/2000/svg">
<path d="M119.54 20.7844C116.391 16.4055 112.325 12.9719 107.754 10.6582C101.463 7.47458 91.5168 3.1491 84.1254 3.28102C72.4673 3.4891 46.2288 17.7518 32.5216 20.4651C18.8143 23.1785 -1.3433 33.308 2.84947 53.9288C7.04224 74.5496 18.1694 80.6997 39.4559 77.9863C60.7425 75.2731 68.3218 72.5598 85.5769 75.9967C102.832 79.4334 122.667 77.0819 124.763 52.4818C126.298 34.4708 124.03 27.0285 119.54 20.7844Z" fill="#84DA49"/>
<path opacity="0.7" d="M119.54 20.7844C116.391 16.4055 112.325 12.9719 107.754 10.6582C101.463 7.47458 91.5168 3.1491 84.1254 3.28102C72.4673 3.4891 46.2288 17.7518 32.5216 20.4651C18.8143 23.1785 -1.3433 33.308 2.84947 53.9288C7.04224 74.5496 18.1694 80.6997 39.4559 77.9863C60.7425 75.2731 68.3218 72.5598 85.5769 75.9967C102.832 79.4334 122.667 77.0819 124.763 52.4818C126.298 34.4708 124.03 27.0285 119.54 20.7844Z" fill="white"/>
<path d="M68.7797 34.552C68.7797 34.552 74.3607 47.7547 75.7043 48.4528C77.048 49.1506 116.422 45.7464 116.422 45.7464L115.305 44.5078L115.252 35.9634L116.724 35.8986L101.682 16.1655L67.6919 18.638C67.6919 18.638 65.8683 19.8969 65.6251 20.9847C65.3817 22.0725 65.4365 23.7171 65.4365 23.7171L68.7797 34.552Z" fill="#0F4332" fill-opacity="0.7" stroke="#0F4332" stroke-opacity="0.7" stroke-miterlimit="10"/>
<path d="M115.251 35.9633L76.6216 39.0617C76.6216 39.0617 74.8047 40.1017 74.5214 42.5026C74.2379 44.9036 75.2133 47.3427 75.9376 47.6933C76.6619 48.0438 77.606 48.0725 77.606 48.0725L115.305 44.5078L115.251 35.9633Z" fill="#E0E0E0" stroke="#0F4332" stroke-opacity="0.7" stroke-miterlimit="10"/>
<path d="M75.9468 6.14352L60.3663 27.5724C60.3663 27.5724 59.5174 28.4055 59.5579 30.4466C59.5983 32.4877 59.7022 35.8191 60.3127 36.0523C60.9232 36.2855 106.004 39.6944 106.004 39.6944L116.412 15.7465L115.6 15.3997L115.883 9.5034L116.559 7.59141L77.0911 5.74878L75.9468 6.14352Z" fill="#84DA49" stroke="#0F4332" stroke-opacity="0.7" stroke-miterlimit="10"/>
<path d="M61.768 28.1822C61.768 28.1822 60.3574 27.7478 59.9577 29.0971C59.558 30.4464 60.5416 35.3387 60.5416 35.3387C60.5416 35.3387 61.3833 35.6875 61.7704 35.6992C62.1575 35.711 105.542 38.5642 105.542 38.5642L115.6 15.3997L115.883 9.50342L106.261 30.2608L61.768 28.1822Z" fill="white" stroke="#0F4332" stroke-opacity="0.7" stroke-miterlimit="10"/>
<path d="M105.266 30.2144L61.768 28.1824C61.768 28.1824 60.3574 27.748 59.9577 29.0973C59.558 30.4466 60.5416 35.3388 60.5416 35.3388C60.5416 35.3388 61.3833 35.6877 61.7704 35.6994C62.1575 35.7111 105.542 38.5644 105.542 38.5644L105.482 30.3988L105.266 30.2144Z" fill="#E0E0E0" stroke="#0F4332" stroke-opacity="0.7" stroke-miterlimit="10"/>
<path d="M67.6108 72.0854C67.6108 72.0854 69.2046 74.3757 70.871 74.3388C81.9753 74.093 101.123 79.3869 103.346 79.3869C105.569 79.3869 107.22 79.1906 107.22 78.7209C107.22 78.2512 99.4039 47.4462 99.4039 47.4462L97.8543 46.9764L103.177 77.0432C103.177 77.0432 96.5741 76.1036 83.2336 73.8888C69.8931 71.674 70.4404 69.8039 68.8235 70.1394C67.2065 70.4747 67.6108 72.0854 67.6108 72.0854Z" fill="#84DA49" stroke="#0F4332" stroke-opacity="0.7" stroke-miterlimit="10"/>
<path d="M104.929 78.5865C102.638 78.4522 98.1825 77.2966 87.1892 75.0485C76.1959 72.8004 67.9472 71.4379 67.9472 71.4379L67.7159 72.2279C68.0962 72.7268 69.4573 74.3702 70.8712 74.3389C81.9755 74.0931 101.123 79.3871 103.346 79.3871C105.57 79.3871 107.22 79.1907 107.22 78.721C107.22 78.6822 106.072 78.6535 104.929 78.5865Z" fill="#0F4332" fill-opacity="0.7" stroke="#0F4332" stroke-opacity="0.7" stroke-miterlimit="10"/>
<path d="M31.6317 46.2467C31.6317 46.2467 30.8233 46.5151 30.6884 47.1191C30.5536 47.7232 22.8053 78.6623 23.5465 78.7295C24.2878 78.7966 65.1179 79.065 65.5894 78.5952C66.061 78.1254 67.6106 72.0852 67.6106 72.0852L64.1744 76.716L28.7345 75.8435L32.9791 46.9848L31.6317 46.2467Z" fill="#84DA49" stroke="#0F4332" stroke-opacity="0.7" stroke-miterlimit="10"/>
<path d="M65.5896 78.5954C66.0611 78.1257 67.6108 72.0854 67.6108 72.0854L67.3835 72.392L65.2527 77.8573L23.9587 78.387L23.5467 78.7297C24.2877 78.7969 65.1178 79.0653 65.5896 78.5954Z" fill="#0F4332" fill-opacity="0.7" stroke="#0F4332" stroke-opacity="0.7" stroke-miterlimit="10"/>
<path d="M32.575 45.8442L31.6317 46.2468L25.0962 77.723L65.2527 77.8573L67.9477 70.9446L30.2169 72.7566L33.7205 45.7771L32.575 45.8442Z" fill="white" stroke="#0F4332" stroke-opacity="0.7" stroke-miterlimit="10"/>
<path d="M27.7914 73.7633L25.9606 76.7967L25.0962 77.723L65.2527 77.8573L67.9477 70.9446L30.2169 72.7566L27.7914 73.7633Z" fill="#E0E0E0" stroke="#0F4332" stroke-opacity="0.7" stroke-miterlimit="10"/>
<path d="M67.9477 70.9445V64.7701L35.5397 68.3271L33.1141 72.5553L67.9477 70.9445Z" fill="#B8B8B8" stroke="#0F4332" stroke-opacity="0.7" stroke-miterlimit="10"/>
<path d="M34.0574 42.4214L33.1141 42.5557L27.7914 73.7632C27.7914 73.7632 32.1709 73.4277 38.1 72.0184C44.0291 70.6089 56.0895 68.4613 60.132 69.0653C64.1746 69.6693 67.6108 72.0853 67.6108 72.0853C67.6108 72.0853 72.6556 73.0831 78.3152 74.2239C83.9749 75.3648 92.3969 77.1099 97.9892 78.0495C103.581 78.989 104.929 78.5863 104.929 78.5863L97.9892 46.439L97.3154 46.2377L101.021 75.3648C101.021 75.3648 77.6498 68.9308 74.5505 68.9308C71.4512 68.9308 69.7667 65.6423 63.5681 64.4342C57.3695 63.2261 50.4296 65.6422 44.5679 66.6489C38.7062 67.6557 33.7203 69.3334 33.7203 69.3334L35.27 42.421H34.0574V42.4214Z" fill="#E0E0E0" stroke="#0F4332" stroke-opacity="0.7" stroke-miterlimit="10"/>
<path d="M30.2169 72.7565L27.7914 73.7633L33.1141 42.5555L35.2702 42.4214L30.2169 72.7565Z" fill="white" stroke="#0F4332" stroke-opacity="0.7" stroke-miterlimit="10"/>
<path d="M67.1391 38.2604C67.1391 38.2604 67.7455 37.1865 73.2703 38.596C78.7951 40.0054 84.5811 43.5533 89.2974 44.2245C94.0138 44.8956 97.1131 45.5668 97.1131 45.5668L103.514 77.9154C103.514 77.9154 93.0705 76.5061 83.2336 73.8886C73.3968 71.2713 69.2277 69.5353 67.9477 70.9446L67.1391 38.2604Z" fill="white" stroke="#0F4332" stroke-opacity="0.7" stroke-miterlimit="10"/>
<path d="M83.8291 47.0978C83.8291 47.0978 84.1692 47.0978 95.3938 49.5541" stroke="#0F4332" stroke-opacity="0.7" stroke-miterlimit="10"/>
<path d="M83.9407 48.4583C83.9407 48.4583 84.2551 48.4734 88.1279 49.2999C89.9103 49.6806 92.4889 50.2637 95.6329 50.9516" stroke="#0F4332" stroke-opacity="0.7" stroke-miterlimit="10"/>
<path d="M84.0523 49.819C84.0523 49.819 84.5136 49.8494 88.2891 50.6554C90.1625 51.0559 92.9377 51.7073 95.8722 52.3494" stroke="#0F4332" stroke-opacity="0.7" stroke-miterlimit="10"/>
<path d="M84.1639 51.1794C84.1639 51.1794 84.7724 51.225 88.4504 52.0106C90.4148 52.4308 93.3864 53.1508 96.1113 53.747" stroke="#0F4332" stroke-opacity="0.7" stroke-miterlimit="10"/>
<path d="M84.2756 52.54C84.2756 52.54 85.0311 52.6007 88.6117 53.3659C90.667 53.806 93.8353 54.5943 96.3504 55.1446" stroke="#0F4332" stroke-opacity="0.7" stroke-miterlimit="10"/>
<path d="M84.3872 53.9005C84.3872 53.9005 85.2897 53.9765 88.773 54.7211C90.9191 55.181 94.284 56.0378 96.5897 56.5421" stroke="#0F4332" stroke-opacity="0.7" stroke-miterlimit="10"/>
<path d="M84.4988 55.261C84.4988 55.261 85.5484 55.3521 88.9342 56.0763C91.1713 56.556 94.7328 57.4812 96.8288 57.9398" stroke="#0F4332" stroke-opacity="0.7" stroke-miterlimit="10"/>
<path d="M84.6104 56.6215C84.6104 56.6215 85.8071 56.7277 89.0955 57.4313C91.4236 57.9308 95.1817 58.9243 97.0681 59.3372" stroke="#0F4332" stroke-opacity="0.7" stroke-miterlimit="10"/>
<path d="M84.722 57.9821C84.722 57.9821 86.0659 58.1034 89.2568 58.7867C91.6759 59.3058 95.6304 60.3678 97.3072 60.7349" stroke="#0F4332" stroke-opacity="0.7" stroke-miterlimit="10"/>
<path d="M84.8336 59.3425C84.8336 59.3425 86.3244 59.4792 89.4181 60.1419C91.9279 60.6809 96.0792 61.8113 97.5462 62.1324" stroke="#0F4332" stroke-opacity="0.7" stroke-miterlimit="10"/>
<path d="M84.9453 60.7032C84.9453 60.7032 86.5831 60.8551 89.5794 61.4973C92.1802 62.0561 96.5279 63.2549 97.7855 63.5302" stroke="#0F4332" stroke-opacity="0.7" stroke-miterlimit="10"/>
<path d="M85.0569 62.0637C85.0569 62.0637 86.8419 62.2307 89.7407 62.8525C92.4324 63.4312 96.9768 64.6984 98.0246 64.9277" stroke="#0F4332" stroke-opacity="0.7" stroke-miterlimit="10"/>
<path d="M85.1683 63.4242C85.1683 63.4242 87.1003 63.6064 89.9018 64.2077C92.6843 64.8061 97.4253 66.1418 98.2638 66.3252" stroke="#0F4332" stroke-opacity="0.7" stroke-miterlimit="10"/>
<path d="M85.2801 64.7848C85.2801 64.7848 87.3592 64.9822 90.0632 65.5631C92.9367 66.1813 97.8743 67.5854 98.503 67.7229" stroke="#0F4332" stroke-opacity="0.7" stroke-miterlimit="10"/>
<path d="M85.3915 66.1453C85.3915 66.1453 87.6177 66.3578 90.2241 66.9183C93.1886 67.5563 98.3226 69.0288 98.7419 69.1204" stroke="#0F4332" stroke-opacity="0.7" stroke-miterlimit="10"/>
<path d="M85.5032 67.5057C85.5032 67.5057 87.8763 67.7335 90.3856 68.2733C93.4409 68.9312 98.7717 70.4721 98.9812 70.518" stroke="#0F4332" stroke-opacity="0.7" stroke-miterlimit="10"/>
<path d="M85.6148 68.8663C85.6148 68.8663 88.135 69.1093 90.5467 69.6286C93.693 70.3062 99.2202 71.9156 99.2202 71.9156" stroke="#0F4332" stroke-opacity="0.7" stroke-miterlimit="10"/>
<path d="M69.2511 41.6913C69.2511 41.6913 71.6875 41.7702 74.0047 42.5148C76.1402 43.2011 77.7936 44.6421 82.1339 46.6322" stroke="#0F4332" stroke-opacity="0.7" stroke-miterlimit="10"/>
<path d="M82.2414 48.013C78.1725 46.1473 76.5364 44.7535 74.2414 44.0114C71.7763 43.2148 69.3544 43.1192 69.2596 43.1493" stroke="#0F4332" stroke-opacity="0.7" stroke-miterlimit="10"/>
<path d="M82.3491 49.3941C78.5514 47.6528 76.9324 46.3061 74.4783 45.5084C71.8652 44.6596 69.4578 44.5478 69.2683 44.6078" stroke="#0F4332" stroke-opacity="0.7" stroke-miterlimit="10"/>
<path d="M82.4568 50.7752C78.9305 49.1583 77.3286 47.8587 74.7152 47.0053C71.9541 46.1044 69.5612 45.9759 69.277 46.066" stroke="#0F4332" stroke-opacity="0.7" stroke-miterlimit="10"/>
<path d="M82.5643 52.1562C79.3092 50.6636 77.7247 49.4113 74.9517 48.502C72.0427 47.549 69.6643 47.4041 69.2854 47.5242" stroke="#0F4332" stroke-opacity="0.7" stroke-miterlimit="10"/>
<path d="M82.672 53.5372C79.6881 52.1691 78.1208 50.9639 75.1886 49.9988C72.1316 48.9938 69.7677 48.8323 69.2941 48.9824" stroke="#0F4332" stroke-opacity="0.7" stroke-miterlimit="10"/>
<path d="M82.7797 54.9183C80.0671 53.6746 78.5169 52.5165 75.4255 51.4957C72.2205 50.4384 69.8711 50.2605 69.3028 50.4407" stroke="#0F4332" stroke-opacity="0.7" stroke-miterlimit="10"/>
<path d="M82.8872 56.2992C80.4458 55.1798 78.913 54.069 75.6622 52.9924C72.3093 51.8832 69.9744 51.6887 69.3112 51.8988" stroke="#0F4332" stroke-opacity="0.7" stroke-miterlimit="10"/>
<path d="M82.9949 57.6803C80.8249 56.6853 79.3092 55.6216 75.8991 54.4894C72.3982 53.3279 70.0778 53.117 69.3199 53.3572" stroke="#0F4332" stroke-opacity="0.7" stroke-miterlimit="10"/>
<path d="M83.1025 59.0614C81.2037 58.1908 79.7053 57.1742 76.1359 55.9863C72.4871 54.7728 70.1812 54.5452 69.3286 54.8155" stroke="#0F4332" stroke-opacity="0.7" stroke-miterlimit="10"/>
<path d="M83.2103 60.4423C81.5828 59.696 80.1016 58.7269 76.3728 57.483C72.576 56.2173 70.2845 55.9734 69.3373 56.2734" stroke="#0F4332" stroke-opacity="0.7" stroke-miterlimit="10"/>
<path d="M83.3178 61.8234C81.9615 61.2015 80.4975 60.2794 76.6096 58.9798C72.6648 57.6621 70.3877 57.4015 69.3458 57.7316" stroke="#0F4332" stroke-opacity="0.7" stroke-miterlimit="10"/>
<path d="M83.4255 63.2044C82.3404 62.7068 80.8937 61.832 76.8463 60.4766C72.7535 59.1067 70.491 58.8296 69.3544 59.1899" stroke="#0F4332" stroke-opacity="0.7" stroke-miterlimit="10"/>
<path d="M83.5331 64.5854C82.7194 64.2122 81.2899 63.3845 77.0831 61.9735C72.8424 60.5515 70.5944 60.2579 69.363 60.6482" stroke="#0F4332" stroke-opacity="0.7" stroke-miterlimit="10"/>
<path d="M83.6407 65.9664C83.0981 65.7177 81.6859 64.937 77.3199 63.4703C72.9312 61.9962 70.6977 61.6861 69.3716 62.1064" stroke="#0F4332" stroke-opacity="0.7" stroke-miterlimit="10"/>
<path d="M83.7484 67.3475C83.4772 67.2231 82.082 66.4897 77.5568 64.9672C73.0201 63.441 70.8011 63.1144 69.3801 63.5647" stroke="#0F4332" stroke-opacity="0.7" stroke-miterlimit="10"/>
<path d="M83.8561 68.7285C83.8561 68.7285 82.4783 68.0423 77.7937 66.464C73.109 64.8857 70.9045 64.5426 69.3889 65.0229" stroke="#0F4332" stroke-opacity="0.7" stroke-miterlimit="10"/>
<path d="M67.1391 38.2603L67.9475 70.9445C67.9475 70.9445 65.522 65.9782 59.0539 66.1794C52.5858 66.3807 38.302 71.3471 36.0112 71.817C33.7203 72.2869 30.2169 72.7566 30.2169 72.7566L34.0574 41.5488C34.0574 41.5488 51.0363 38.4616 54.6072 37.3877C58.1782 36.3138 61.2775 35.173 63.5682 35.7098C65.8591 36.247 67.1391 36.6496 67.1391 38.2603Z" fill="white" stroke="#0F4332" stroke-opacity="0.7" stroke-miterlimit="10"/>
<path d="M37.7535 45.3124L50.3386 42.5172" stroke="#0F4332" stroke-opacity="0.7" stroke-miterlimit="10"/>
<path d="M37.6152 46.71C37.6152 46.71 45.6055 44.9156 45.7915 44.8573C45.9625 44.8038 50.3065 43.8407 50.3065 43.8407" stroke="#0F4332" stroke-opacity="0.7" stroke-miterlimit="10"/>
<path d="M37.4772 48.1077C37.4772 48.1077 45.3487 46.32 45.7207 46.2035C46.0627 46.0964 50.275 45.1643 50.275 45.1643" stroke="#0F4332" stroke-opacity="0.7" stroke-miterlimit="10"/>
<path d="M37.3389 49.5053C37.3389 49.5053 45.0916 47.7242 45.6495 47.5496C46.1627 47.389 50.2429 46.4878 50.2429 46.4878" stroke="#0F4332" stroke-opacity="0.7" stroke-miterlimit="10"/>
<path d="M37.2007 50.9028C37.2007 50.9028 44.8344 49.1285 45.5785 48.8956C46.2627 48.6814 50.2109 47.8112 50.2109 47.8112" stroke="#0F4332" stroke-opacity="0.7" stroke-miterlimit="10"/>
<path d="M37.0626 52.3004C37.0626 52.3004 44.5776 50.5328 45.5075 50.2416C46.3628 49.9738 50.179 49.1345 50.179 49.1345" stroke="#0F4332" stroke-opacity="0.7" stroke-miterlimit="10"/>
<path d="M36.9244 53.698C36.9244 53.698 44.3204 51.9371 45.4365 51.5876C46.4628 51.2663 50.1473 50.4581 50.1473 50.4581" stroke="#0F4332" stroke-opacity="0.7" stroke-miterlimit="10"/>
<path d="M36.7861 55.0955C36.7861 55.0955 44.0634 53.3412 45.3654 52.9336C46.5626 52.5587 50.1152 51.7815 50.1152 51.7815" stroke="#0F4332" stroke-opacity="0.7" stroke-miterlimit="10"/>
<path d="M36.6481 56.4931C36.6481 56.4931 43.8065 54.7455 45.2946 54.2797C46.6628 53.8513 50.0835 53.105 50.0835 53.105" stroke="#0F4332" stroke-opacity="0.7" stroke-miterlimit="10"/>
<path d="M36.5098 57.8907C36.5098 57.8907 43.5493 56.1499 45.2234 55.6258C46.7628 55.1438 50.0515 54.4285 50.0515 54.4285" stroke="#0F4332" stroke-opacity="0.7" stroke-miterlimit="10"/>
<path d="M36.3716 59.2882C36.3716 59.2882 43.2923 57.5541 45.1524 56.9718C46.8628 56.4363 50.0196 55.7521 50.0196 55.7521" stroke="#0F4332" stroke-opacity="0.7" stroke-miterlimit="10"/>
<path d="M36.2335 60.6858C36.2335 60.6858 43.0353 58.9582 45.0814 58.3177C46.9628 57.7286 49.9877 57.0753 49.9877 57.0753" stroke="#0F4332" stroke-opacity="0.7" stroke-miterlimit="10"/>
<path d="M36.0953 62.0835C36.0953 62.0835 42.7782 60.3628 45.0104 59.6639C47.0628 59.0213 49.956 58.3989 49.956 58.3989" stroke="#0F4332" stroke-opacity="0.7" stroke-miterlimit="10"/>
<path d="M35.957 63.4811C35.957 63.4811 42.521 61.767 44.9392 61.01C47.1627 60.3138 49.9239 59.7224 49.9239 59.7224" stroke="#0F4332" stroke-opacity="0.7" stroke-miterlimit="10"/>
<path d="M35.819 64.8787C35.819 64.8787 42.2642 63.1712 44.8684 62.356C47.2629 61.6063 49.8921 61.046 49.8921 61.046" stroke="#0F4332" stroke-opacity="0.7" stroke-miterlimit="10"/>
<path d="M35.6807 66.2762C35.6807 66.2762 42.007 64.5755 44.7972 63.7019C47.3629 62.8988 49.8602 62.3693 49.8602 62.3693" stroke="#0F4332" stroke-opacity="0.7" stroke-miterlimit="10"/>
<path d="M35.5427 67.6738C35.5427 67.6738 41.7502 65.9798 44.7264 65.048C47.463 64.1914 49.8285 63.6927 49.8285 63.6927" stroke="#0F4332" stroke-opacity="0.7" stroke-miterlimit="10"/>
<path d="M52.1243 42.009C52.1243 42.009 63.859 38.2821 65.5597 40.1455" stroke="#0F4332" stroke-opacity="0.7" stroke-miterlimit="10"/>
<path d="M52.0871 43.3643C52.0871 43.3643 56.0694 42.0861 59.6533 41.4141C62.387 40.9075 64.891 40.7994 65.565 41.5378" stroke="#0F4332" stroke-opacity="0.7" stroke-miterlimit="10"/>
<path d="M52.0499 44.7196C52.0499 44.7196 56.1044 43.4048 59.6389 42.7525C62.4453 42.2459 64.9413 42.2408 65.5704 42.9302" stroke="#0F4332" stroke-opacity="0.7" stroke-miterlimit="10"/>
<path d="M52.0126 46.0747C52.0126 46.0747 56.1376 44.7142 59.6244 44.0908C62.5023 43.5763 64.9915 43.6823 65.5755 44.3224" stroke="#0F4332" stroke-opacity="0.7" stroke-miterlimit="10"/>
<path d="M51.9755 47.4301C51.9755 47.4301 56.1723 46.0313 59.6101 45.4295C62.5607 44.9129 65.0417 45.124 65.581 45.7149" stroke="#0F4332" stroke-opacity="0.7" stroke-miterlimit="10"/>
<path d="M51.9382 48.785C51.9382 48.785 56.2069 47.3485 59.5957 46.7676C62.6189 46.2495 65.092 46.5653 65.5863 47.107" stroke="#0F4332" stroke-opacity="0.7" stroke-miterlimit="10"/>
<path d="M51.9011 50.1404C51.9011 50.1404 56.242 48.6665 59.5812 48.1062C62.6771 47.5867 65.1422 48.0069 65.5916 48.4994" stroke="#0F4332" stroke-opacity="0.7" stroke-miterlimit="10"/>
<path d="M51.8638 51.4956C51.8638 51.4956 56.2768 49.985 59.5669 49.4446C62.7355 48.924 65.1926 49.4485 65.5969 49.8915" stroke="#0F4332" stroke-opacity="0.7" stroke-miterlimit="10"/>
<path d="M51.8267 52.8508C51.8267 52.8508 56.312 51.3038 59.5524 50.7829C62.7939 50.2619 65.2426 50.8899 65.6022 51.2838" stroke="#0F4332" stroke-opacity="0.7" stroke-miterlimit="10"/>
<path d="M51.7894 54.2061C51.7894 54.2061 56.3469 52.6232 59.538 52.1214C62.8524 51.6002 65.2929 52.3315 65.6075 52.6761" stroke="#0F4332" stroke-opacity="0.7" stroke-miterlimit="10"/>
<path d="M51.7522 55.5613C51.7522 55.5613 56.382 53.9429 59.5235 53.4599C62.9109 52.939 65.3431 53.773 65.6127 54.0685" stroke="#0F4332" stroke-opacity="0.7" stroke-miterlimit="10"/>
<path d="M51.715 56.9165C51.715 56.9165 56.4172 55.2629 59.5092 54.7983C62.9696 54.2782 65.3934 55.2144 65.618 55.4608" stroke="#0F4332" stroke-opacity="0.7" stroke-miterlimit="10"/>
<path d="M51.6778 58.2718C51.6778 58.2718 56.4525 56.5833 59.4948 56.1367C63.0283 55.6179 65.4438 56.6561 65.6235 56.8531" stroke="#0F4332" stroke-opacity="0.7" stroke-miterlimit="10"/>
<path d="M51.6406 59.6271C51.6406 59.6271 56.4879 57.9041 59.4804 57.4752C63.0871 56.9582 65.494 58.0976 65.6288 58.2453" stroke="#0F4332" stroke-opacity="0.7" stroke-miterlimit="10"/>
<path d="M51.6034 60.9822C51.6034 60.9822 56.5239 59.2303 59.466 58.8135C63.1468 58.3055 65.5443 59.539 65.6341 59.6375" stroke="#0F4332" stroke-opacity="0.7" stroke-miterlimit="10"/>
<path d="M51.5662 62.3374C51.5662 62.3374 56.5589 60.5492 59.4517 60.1519C63.2054 59.6438 65.5945 60.9805 65.6396 61.0298" stroke="#0F4332" stroke-opacity="0.7" stroke-miterlimit="10"/>
<path d="M51.529 63.6927C51.529 63.6927 56.5939 61.8681 59.4372 61.4905C63.2637 60.9822 65.6447 62.4223 65.6447 62.4223" stroke="#0F4332" stroke-opacity="0.7" stroke-miterlimit="10"/>
<path d="M79.6982 73.7222C80.5326 73.8962 81.0538 74.026 81.0538 74.026" stroke="#0F4332" stroke-opacity="0.7" stroke-miterlimit="10"/>
<path d="M66.7401 70.9407C67.3091 71.5984 67.6108 72.0855 67.6108 72.0855C67.6108 72.0855 70.6541 70.8621 74.3337 70.9699C76.4472 71.0318 77.4862 73.2841 79.0849 73.5979" stroke="#0F4332" stroke-opacity="0.7" stroke-miterlimit="10"/>
<path d="M64.9197 69.2267C65.4519 69.6286 65.9113 70.0539 66.2926 70.4502" stroke="#0F4332" stroke-opacity="0.7" stroke-miterlimit="10"/>
<path d="M54.7448 67.7358C55.9352 67.4125 59.5067 66.7657 62.6453 67.9514C63.5054 68.2764 64.2671 68.7337 64.9197 69.2266" stroke="#0F4332" stroke-opacity="0.7" stroke-miterlimit="10"/>
<path d="M63.0542 68.9328C62.0201 68.5571 60.4749 68.1693 58.431 68.1209C54.3432 68.024 44.8048 70.1568 44.8048 70.1568" stroke="#0F4332" stroke-opacity="0.7" stroke-miterlimit="10"/>
<path d="M64.6115 69.6719C64.6115 69.6719 64.3432 69.4856 63.8113 69.2418" stroke="#0F4332" stroke-opacity="0.7" stroke-miterlimit="10"/>
<path d="M64.0121 72.4249L38.2228 73.66" stroke="#0F4332" stroke-opacity="0.7" stroke-miterlimit="10"/>
<path d="M66.4383 72.3088L65.0302 72.3762" stroke="#0F4332" stroke-opacity="0.7" stroke-miterlimit="10"/>
<path d="M44.7681 74.8691L46.2715 74.8312" stroke="#0F4332" stroke-opacity="0.7" stroke-miterlimit="10"/>
<path d="M31.9828 75.1913L43.9049 74.8907" stroke="#0F4332" stroke-opacity="0.7" stroke-miterlimit="10"/>
<path d="M61.5869 75.5953L62.9113 75.5518" stroke="#0F4332" stroke-opacity="0.7" stroke-miterlimit="10"/>
<path d="M43.7393 76.1822L60.5244 75.6302" stroke="#0F4332" stroke-opacity="0.7" stroke-miterlimit="10"/>
<path d="M55.7573 74.3507L52.2401 74.4707" stroke="#0F4332" stroke-opacity="0.7" stroke-miterlimit="10"/>
<path d="M65.4435 74.0204L56.7204 74.3179" stroke="#0F4332" stroke-opacity="0.7" stroke-miterlimit="10"/>
<path d="M39.4474 76.3053L40.6644 76.2723" stroke="#0F4332" stroke-opacity="0.7" stroke-miterlimit="10"/>
<path d="M27.3707 76.6326L38.6881 76.3259" stroke="#0F4332" stroke-opacity="0.7" stroke-miterlimit="10"/>
<path d="M47.6367 39.1499C47.6367 39.1499 50.1455 35.8637 51.7262 34.4945C53.3071 33.1251 56.022 30.9685 57.1216 30.9685C58.2214 30.9685 58.4963 31.6531 58.565 31.8928C58.6337 32.1325 59.5616 35.5898 59.5616 35.761C59.5616 35.9322 58.5994 36.206 58.5307 36.0007C58.4619 35.7953 58.0495 32.8514 57.8777 32.3037C57.7058 31.7559 57.7401 31.4479 56.4344 31.9956C55.1284 32.5434 51.2794 36.6513 50.489 37.6097C49.6987 38.5682 48.9426 39.561 48.9426 39.561C48.9426 39.561 48.0147 39.1499 47.6367 39.1499Z" fill="#0F4332" fill-opacity="0.7" stroke="#0F4332" stroke-opacity="0.7" stroke-miterlimit="10"/>
<path d="M90.1022 42.4998C90.0212 42.3835 89.9145 42.2497 89.8382 42.2307C89.7177 42.2008 88.9113 43.5635 88.7137 43.9013C88.9422 43.6523 89.0822 43.5089 89.0822 43.5315C89.0822 43.6342 88.6698 45.654 88.2918 46.6125C87.9138 47.5709 88.0169 48.016 88.3949 47.9818C88.7729 47.9476 89.2885 46.2359 89.5977 45.2775C89.8259 44.5704 90.0534 43.3432 90.1022 42.4998Z" fill="white" stroke="#0F4332" stroke-opacity="0.7" stroke-miterlimit="10"/>
<path d="M90.0789 41.7858C89.9413 41.1696 89.0479 41.957 88.6699 42.5048C88.2918 43.0525 86.5736 44.9009 85.6113 45.8252C84.6491 46.7495 81.0407 49.8304 80.6627 50.1043C80.2847 50.3781 79.8379 50.8574 79.5629 50.8915C79.288 50.9257 78.5662 50.8915 78.2227 50.6862C77.8789 50.4808 77.7073 50.1043 76.0576 49.2141C74.4081 48.3242 67.2599 46.2703 66.7443 46.2359C66.2289 46.2017 65.8164 46.7151 65.0948 47.0232C64.3731 47.3312 63.1704 47.3997 62.6548 46.9547C62.1392 46.5096 61.5207 45.38 61.177 44.5585C60.8333 43.7371 60.2836 43.5316 59.8023 43.2577C59.3212 42.9838 53.5477 40.4506 52.4822 40.1083C51.4169 39.7659 50.3514 39.5264 49.8703 39.492C49.3892 39.4578 48.9424 39.5605 48.9424 39.5605C48.9424 39.5605 48.8736 39.6632 48.5987 39.4578C48.3237 39.2525 47.4303 38.8759 47.1554 39.4237C46.8804 39.9714 46.4681 41.2379 46.7086 41.7173C46.949 42.1965 46.949 42.1965 46.949 42.1965C46.949 42.1965 46.7086 45.2775 46.8116 46.3386C46.9147 47.3997 47.7396 48.7691 48.4268 49.5907C49.1141 50.4123 51.8634 51.9527 53.8911 52.4319C55.9186 52.9111 57.1559 52.6373 57.7056 52.2607C58.2555 51.8842 59.9395 50.0014 60.3518 49.5564C60.7641 49.1113 60.7298 48.8374 62.0701 49.2483C63.4103 49.659 63.8914 50.6177 64.1321 51.3364C64.3727 52.0554 65.2662 54.9307 65.9879 55.855C66.7097 56.7793 67.7407 57.8746 69.4932 58.6279C71.246 59.381 72.4144 59.9629 74.0639 59.7575C75.7134 59.5522 76.607 58.7991 77.1226 57.909C77.638 57.0188 77.9817 55.2388 78.1535 54.6912C78.3254 54.1436 78.8753 53.8013 78.8753 53.8013C78.8753 53.8013 79.5626 53.4932 79.7687 53.014C79.9749 52.5348 81.5901 51.0627 81.5901 51.0627C81.5901 51.0627 84.202 49.0088 85.1985 47.8791C86.1952 46.7495 89.0818 43.429 89.0818 43.5317C89.0818 43.6344 88.6695 45.6542 88.2915 46.6126C87.9135 47.5711 88.0165 48.0162 88.3946 47.982C88.7726 47.9478 89.2882 46.2361 89.5974 45.2776C89.907 44.319 90.2164 42.4019 90.0789 41.7858ZM60.8676 47.4341C60.8676 47.4341 60.7988 47.7079 60.5926 48.016C60.3865 48.324 59.0117 50.515 58.1526 51.1996C57.2935 51.8842 56.2968 52.4662 55.2658 52.3634C54.2348 52.2607 51.5886 51.2679 49.6297 49.7275C47.6708 48.1872 47.3958 46.1674 47.602 44.2161C47.8082 42.2649 48.4956 40.9299 49.5264 40.7245C50.5574 40.5192 53.9597 41.3749 56.2966 42.6073C58.6335 43.8396 60.6268 45.3458 60.7642 45.8594C60.9021 46.3729 60.8676 47.4341 60.8676 47.4341ZM77.3291 54.4517C77.1229 56.2317 76.7104 57.2587 76.0919 58.0803C75.4734 58.9019 74.7517 59.2785 72.827 59.1073C70.9024 58.9361 69.4591 58.2172 68.1189 57.2587C66.7786 56.3003 66.3318 55.0336 65.8164 53.8354C65.301 52.6373 64.4074 50.2411 64.9228 48.7349C65.4384 47.2287 66.9503 47.6053 66.9503 47.6053C66.9503 47.6053 68.2219 47.8791 68.325 47.9133C68.4281 47.9475 76.0231 50.1726 76.3667 50.686C76.7104 51.1996 77.5352 52.6716 77.3291 54.4517Z" fill="#0F4332" fill-opacity="0.7" stroke="#0F4332" stroke-opacity="0.7" stroke-miterlimit="10"/>
<path d="M60.3865 44.3531C60.3865 44.3531 60.6957 44.5585 61.0051 45.4143C61.3144 46.2701 61.7612 47.6736 62.9984 47.9475C64.2355 48.2213 65.4727 47.1602 65.4727 47.1602" stroke="white" stroke-miterlimit="10"/>
<path d="M66.9505 47.0233C66.9505 47.0233 72.4835 48.3927 74.9234 49.488C77.3634 50.5835 77.604 51.5419 77.7071 51.6104C77.8102 51.6789 78.8412 52.1238 79.3566 51.7473" stroke="white" stroke-miterlimit="10"/>
<path d="M47.3274 39.7662C47.3274 39.7662 47.9461 40.314 48.4272 40.177C48.9083 40.0401 49.5956 39.9031 50.3173 40.1084C51.0391 40.3138 53.6852 40.8957 56.5719 42.1966C59.4587 43.4974 60.1117 44.0451 60.1117 44.0451" stroke="white" stroke-miterlimit="10"/>
<path d="M47.3274 45.7566C47.3274 45.7566 47.19 48.0159 48.7364 49.3509" stroke="white" stroke-miterlimit="10"/>
</svg>
