<svg width="128" height="111" viewBox="0 0 128 111" fill="none" xmlns="http://www.w3.org/2000/svg">
<path d="M30.4494 73.2665H17.4085V76.2312H30.4494V73.2665Z" fill="#EBEBEB"/>
<path d="M24.9349 79.354C24.9336 79.3529 24.9323 79.3347 24.9308 79.3001C24.9298 79.2603 24.9283 79.2104 24.9265 79.1481C24.9242 79.0086 24.9208 78.8139 24.9167 78.5647C24.9114 78.053 24.9039 77.3171 24.8945 76.3893L24.9349 76.4241C21.9574 76.4291 17.2219 76.4373 11.8948 76.4465C11.9242 76.421 11.8277 76.5035 11.9606 76.3895V76.3902V76.3917V76.3946V76.4005V76.4124V76.4362V76.4839V76.5792V76.7693C11.9606 76.8958 11.9606 77.0218 11.9606 77.1474C11.9606 77.3987 11.9603 77.6482 11.9603 77.8957C11.9601 78.3904 11.9595 78.8773 11.9593 79.354L11.8943 79.2982C15.6078 79.3083 18.857 79.3171 21.1876 79.3235C22.3485 79.3303 23.2799 79.3356 23.9306 79.3393C24.247 79.3424 24.4948 79.3448 24.6723 79.3466C24.7521 79.3481 24.8159 79.3492 24.8663 79.3501C24.9103 79.3516 24.9336 79.3527 24.9349 79.354C24.9364 79.3551 24.916 79.3565 24.8745 79.3576C24.8264 79.3584 24.7649 79.3595 24.6884 79.3611C24.5143 79.3628 24.2711 79.3653 23.9606 79.3683C23.3134 79.3721 22.3869 79.3776 21.2324 79.3842C18.8905 79.3906 15.6252 79.3994 11.8938 79.4095L11.8287 79.4097V79.3536C11.8282 78.8769 11.828 78.3902 11.8277 77.8952C11.8277 77.6477 11.8275 77.3982 11.8275 77.147C11.8275 77.0214 11.8275 76.8953 11.8275 76.7688V76.5787V76.4835V76.4357V76.412V76.4001V76.3942V76.3913V76.3898V76.3891C11.9603 76.2749 11.8648 76.3574 11.8948 76.3319C17.2219 76.3411 21.9574 76.3491 24.9349 76.3543H24.9756L24.9754 76.3891C24.9659 77.3256 24.9582 78.0684 24.9531 78.5851C24.949 78.8311 24.9457 79.0232 24.9434 79.1609C24.9416 79.2207 24.9403 79.2687 24.939 79.307C24.9377 79.3393 24.9364 79.3551 24.9349 79.354Z" fill="#E0E0E0"/>
<path d="M106.378 74.3128C106.377 74.3117 106.375 74.2934 106.374 74.2589C106.373 74.2191 106.371 74.1691 106.37 74.1069C106.367 73.9674 106.364 73.7729 106.36 73.5234C106.354 73.0117 106.347 72.2758 106.338 71.3481L106.378 71.3828C103.4 71.3879 98.6649 71.396 93.3378 71.4053C93.3673 71.3797 93.2708 71.4622 93.4036 71.3483V71.3489V71.3505V71.3533V71.3593V71.3712V71.3949V71.4427V71.5379V71.728C93.4036 71.8545 93.4036 71.9806 93.4036 72.1062C93.4034 72.3574 93.4034 72.6069 93.4034 72.8544C93.4028 73.3492 93.4026 73.836 93.4023 74.3128L93.3373 74.2569C97.0509 74.267 100.3 74.2758 102.631 74.2822C103.792 74.289 104.723 74.2943 105.374 74.298C105.69 74.3011 105.938 74.3035 106.115 74.3053C106.195 74.3068 106.259 74.3079 106.309 74.3088C106.353 74.3104 106.376 74.3115 106.378 74.3128C106.379 74.3141 106.359 74.3152 106.318 74.3163C106.269 74.3172 106.208 74.3185 106.131 74.3198C105.957 74.3216 105.714 74.324 105.404 74.3271C104.756 74.3308 103.83 74.3363 102.676 74.3429C100.334 74.3493 97.0688 74.3581 93.3371 74.3682L93.272 74.3684V74.3123C93.2718 73.8356 93.2713 73.349 93.271 72.854C93.271 72.6065 93.2708 72.357 93.2708 72.1057C93.2708 71.9801 93.2708 71.8541 93.2708 71.7276V71.5375V71.4422V71.3945V71.3707V71.3588V71.3529V71.35V71.3485V71.3478C93.4036 71.2337 93.3081 71.3162 93.3381 71.2906C98.6652 71.2999 103.4 71.308 106.378 71.3131H106.419L106.419 71.3478C106.409 72.2844 106.402 73.0271 106.396 73.5439C106.392 73.7901 106.389 73.9819 106.387 74.1196C106.385 74.1795 106.384 74.2276 106.382 74.2657C106.381 74.298 106.379 74.3139 106.378 74.3128Z" fill="#E0E0E0"/>
<path d="M108.146 71.3479C108.144 71.3466 108.143 71.3274 108.141 71.2916C108.139 71.2491 108.138 71.1974 108.136 71.1345C108.133 70.9886 108.129 70.7902 108.124 70.5401C108.117 70.0202 108.109 69.286 108.098 68.3832L108.146 68.4241C106.116 68.4283 103.354 68.434 100.311 68.4401C100.251 68.4912 100.391 68.3706 100.377 68.3834V68.3843V68.3858V68.3889V68.3951V68.4071V68.4316V68.4804V68.5776V68.7715C100.377 68.9004 100.377 69.0284 100.377 69.156C100.376 69.4108 100.376 69.6627 100.376 69.9106C100.375 70.4065 100.374 70.8874 100.374 71.3481L100.31 71.2938C102.572 71.3041 104.52 71.3131 105.916 71.3195C106.604 71.3259 107.156 71.3309 107.548 71.3345C107.732 71.3373 107.878 71.3395 107.989 71.3413C108.09 71.3435 108.143 71.3457 108.146 71.3479C108.148 71.3501 108.1 71.3523 108.004 71.3547C107.896 71.3565 107.754 71.3587 107.577 71.3615C107.187 71.365 106.641 71.3701 105.958 71.3765C104.552 71.3829 102.59 71.3919 100.311 71.4022L100.247 71.4024V71.3477C100.247 70.887 100.246 70.4061 100.245 69.9102C100.245 69.6622 100.245 69.4104 100.245 69.1556C100.245 69.0282 100.245 68.8999 100.244 68.771V68.5772V68.48V68.4311V68.4067V68.3946V68.3885V68.3854V68.3838V68.3829C100.23 68.395 100.371 68.2745 100.311 68.3255C103.355 68.3317 106.117 68.3374 108.146 68.3416L108.195 68.3418L108.194 68.3827C108.183 69.296 108.175 70.0387 108.169 70.5645C108.164 70.8109 108.16 71.006 108.157 71.1497C108.153 71.2828 108.149 71.3507 108.146 71.3479Z" fill="#E0E0E0"/>
<path d="M84.8706 97.0481C84.8693 97.047 84.8681 97.0288 84.8665 96.9942C84.8655 96.9544 84.864 96.9045 84.8622 96.8422C84.8599 96.7027 84.8565 96.5083 84.8525 96.2588C84.8471 95.7471 84.8397 95.0112 84.8302 94.0834L84.8706 94.1182C81.8931 94.1232 77.1576 94.1314 71.8305 94.1406C71.8599 94.1151 71.7634 94.1976 71.896 94.0836V94.0843V94.0858V94.0889V94.0949V94.1067V94.1305V94.1782V94.2735V94.4636C71.896 94.5901 71.896 94.7161 71.896 94.8418C71.896 95.093 71.8958 95.3425 71.8958 95.59C71.8953 96.0848 71.895 96.5716 71.8948 97.0484L71.8297 96.9925C75.5433 97.0026 78.7924 97.0114 81.123 97.0178C82.284 97.0246 83.2153 97.0299 83.8661 97.0336C84.1825 97.0367 84.4303 97.0391 84.6077 97.0409C84.6876 97.0424 84.7513 97.0435 84.8018 97.0444C84.8461 97.0459 84.8691 97.047 84.8706 97.0481C84.8722 97.0492 84.8517 97.0506 84.8102 97.0517C84.7618 97.0525 84.7006 97.0539 84.6241 97.0552C84.45 97.0569 84.2068 97.0594 83.8963 97.0624C83.2491 97.0662 82.3227 97.0717 81.1684 97.0783C78.8265 97.0847 75.5614 97.0935 71.8297 97.1038L71.7647 97.104V97.0479C71.7645 96.5712 71.7639 96.0845 71.7637 95.5895C71.7637 95.342 71.7634 95.0926 71.7634 94.8413C71.7634 94.7157 71.7634 94.5896 71.7634 94.4631V94.2731V94.1778V94.1301V94.1063V94.0944V94.0885V94.0854V94.0839V94.0832C71.8963 93.969 71.8008 94.0515 71.8308 94.026C77.1579 94.0352 81.8931 94.0432 84.8709 94.0484H84.9116L84.9113 94.0832C84.9019 95.0197 84.8942 95.7625 84.8891 96.2792C84.885 96.5252 84.8816 96.7173 84.8793 96.855C84.8775 96.9148 84.8763 96.9628 84.875 97.0011C84.8732 97.0336 84.8719 97.0495 84.8706 97.0481Z" fill="#E0E0E0"/>
<path d="M86.6388 94.0834C86.637 94.0819 86.6355 94.063 86.6337 94.0269C86.6324 93.9844 86.6306 93.9327 86.6286 93.8698C86.6257 93.7239 86.6216 93.5255 86.6165 93.2753C86.6104 92.7555 86.6017 92.0214 86.5909 91.1185L86.6385 91.1594C84.6087 91.1636 81.8472 91.1693 78.8037 91.1755C78.744 91.2265 78.8838 91.1059 78.8697 91.1187V91.1193V91.1209V91.124V91.1301V91.1422V91.1666V91.2153V91.3125V91.5063C78.8697 91.6353 78.8697 91.7635 78.8695 91.8909C78.8692 92.1456 78.8692 92.3975 78.8689 92.6455C78.8682 93.1414 78.8674 93.6223 78.8666 94.083L78.8034 94.0286C81.0654 94.039 83.0128 94.048 84.4085 94.0544C85.0969 94.0608 85.6486 94.0658 86.0413 94.0693C86.2246 94.0722 86.3708 94.0744 86.4816 94.0762C86.5822 94.079 86.636 94.0812 86.6388 94.0834C86.6414 94.0856 86.5927 94.0878 86.4965 94.0902C86.3889 94.092 86.2474 94.0942 86.0692 94.0971C85.6801 94.1006 85.1333 94.1056 84.451 94.112C83.0448 94.1184 81.0826 94.1274 78.8034 94.1378L78.7402 94.138V94.0832C78.7394 93.6225 78.7386 93.1416 78.7379 92.6457C78.7376 92.3975 78.7374 92.1459 78.7371 91.8911C78.7371 91.7637 78.7371 91.6355 78.7368 91.5065V91.3127V91.2155V91.1669V91.1424V91.1303V91.1242V91.1211V91.1196V91.1189C78.7223 91.131 78.8631 91.0104 78.8039 91.0615C81.8475 91.0676 84.609 91.0734 86.6388 91.0775L86.6872 91.0778L86.6867 91.1187C86.6759 92.0319 86.6672 92.7746 86.6611 93.3004C86.6559 93.5468 86.6521 93.742 86.649 93.8856C86.6452 94.0183 86.6421 94.0863 86.6388 94.0834Z" fill="#E0E0E0"/>
<path d="M101.166 95.0006C101.166 95.0006 99.5766 85.6107 99.7089 80.1475C99.8413 74.6842 99.701 68.5381 99.701 68.5381H100.433C100.433 68.5381 99.9375 79.3821 100.477 85.9223C101.017 92.4574 102.438 95.0006 102.438 95.0006H101.166Z" fill="#E0E0E0"/>
<path d="M105.9 57.9732C105.753 57.6525 105.572 57.3183 105.233 57.1337C104.768 56.8807 104.159 56.9859 103.64 57.1436C101.427 57.8161 99.466 61.3616 98.5715 63.2264L101.509 71.7329C106.812 67.5054 107.73 61.9594 105.9 57.9732Z" fill="#E0E0E0"/>
<path d="M105.061 57.4778C105.065 57.4794 105.05 57.5174 105.018 57.5887C104.98 57.6701 104.933 57.7726 104.874 57.8987C104.746 58.1662 104.565 58.5556 104.349 59.0387C103.916 60.0048 103.365 61.3551 102.873 62.8766C102.382 64.399 102.044 65.8007 101.836 66.8199C101.731 67.3297 101.652 67.7433 101.602 68.0297C101.577 68.1635 101.556 68.2724 101.539 68.359C101.524 68.4343 101.513 68.4734 101.509 68.473C101.505 68.4726 101.507 68.4325 101.515 68.3564C101.526 68.2691 101.539 68.1593 101.555 68.0242C101.591 67.736 101.657 67.32 101.751 66.8078C101.939 65.7835 102.264 64.3755 102.756 62.8489C103.25 61.3234 103.815 59.9726 104.27 59.0119C104.496 58.5312 104.689 58.1458 104.831 57.8826C104.898 57.7599 104.953 57.6598 104.996 57.5804C105.035 57.5117 105.057 57.4763 105.061 57.4778Z" fill="#EBEBEB"/>
<path d="M100.204 73.7726C97.4502 72.4651 95.8274 70.0051 95.6759 67.3048C95.5702 65.4172 96.245 63.5648 97.0096 61.7927C97.0759 61.6389 97.1545 61.4735 97.3207 61.3925C97.5516 61.2801 97.8406 61.3802 98.0713 61.493C100.072 62.4723 101.285 64.339 101.929 66.2384C102.359 67.5023 102.581 68.8351 102.382 70.1408C102.184 71.4463 101.316 72.8666 100.204 73.7726Z" fill="#EBEBEB"/>
<path d="M100.204 73.7725C100.2 73.7723 100.196 73.7331 100.193 73.6583C100.191 73.5723 100.189 73.4643 100.186 73.3319C100.185 73.0485 100.172 72.6384 100.145 72.1326C100.092 71.1209 99.9373 69.7263 99.6334 68.203C99.3277 66.6793 98.9573 65.3151 98.6841 64.3288C98.5495 63.8464 98.4392 63.4508 98.3583 63.161C98.324 63.0319 98.2958 62.9267 98.2735 62.8425C98.2553 62.7694 98.2479 62.7305 98.252 62.7296C98.2561 62.7287 98.2715 62.7657 98.2971 62.8372C98.3252 62.9199 98.3606 63.0235 98.4038 63.1507C98.4944 63.4235 98.6194 63.8197 98.7673 64.311C99.062 65.2933 99.4465 66.6573 99.7529 68.1854C100.058 69.7131 100.199 71.1145 100.23 72.1298C100.247 72.6373 100.247 73.0485 100.233 73.3321C100.227 73.4645 100.222 73.5726 100.218 73.6588C100.212 73.7334 100.208 73.7725 100.204 73.7725Z" fill="#E0E0E0"/>
<path d="M103.31 88.1396C106.021 88.6513 108.252 90.2941 110.866 91.0927C112.596 91.6211 114.552 91.8081 115.933 92.8476C115.602 92.1287 114.817 91.6497 114.053 91.2399C111.903 90.0857 109.601 89.1413 107.204 88.4302C105.974 88.0653 104.64 87.7601 103.386 88.0609" fill="#EBEBEB"/>
<path d="M99.392 90.2144C95.9979 90.1673 92.4244 87.6842 89.0463 87.5361C92.5816 86.5549 97.6435 87.3564 99.392 90.2144Z" fill="#EBEBEB"/>
<path d="M100.718 83.2176C102.441 82.6836 104.334 82.6583 106.144 82.9003C107.954 83.1421 109.703 83.6411 111.441 84.1376C111.267 83.1256 110.313 82.3646 109.417 81.6912C108.743 81.1843 108.064 80.6744 107.29 80.2861C106.517 79.898 105.634 79.6351 104.74 79.6676C103.66 79.707 102.632 80.1855 101.924 80.8871C101.216 81.5887 100.835 82.2944 100.718 83.2176Z" fill="#EBEBEB"/>
<path d="M93.7526 79.9974C91.616 78.4299 88.3799 78.5832 85.5716 78.6375C89.8888 80.4114 94.5411 82.8435 98.2592 85.4322C98.3734 83.7257 96.4513 81.9774 93.7526 79.9974Z" fill="#0F4332" fill-opacity="0.7"/>
<path d="M93.7526 79.9974C91.616 78.4299 88.3799 78.5832 85.5716 78.6375C89.8888 80.4114 94.5411 82.8435 98.2592 85.4322C98.3734 83.7257 96.4513 81.9774 93.7526 79.9974Z" fill="#EBEBEB"/>
<path d="M101.679 77.8335C102.753 77.2181 103.84 76.6314 104.965 76.1923C106.089 75.7532 107.139 75.0538 108.225 74.5485C109.633 73.8931 110.853 72.9823 112.145 72.1698C113.438 71.3573 114.858 70.6239 116.44 70.4087C115.15 70.1799 113.802 70.3046 112.532 70.603C111.261 70.9011 110.054 71.3679 108.853 71.8328C107.187 72.478 105.491 73.1391 104.129 74.1865C102.766 75.2337 101.535 76.2675 101.679 77.8335Z" fill="#EBEBEB"/>
<path d="M110.804 90.2145C110.802 90.2176 110.765 90.2037 110.697 90.1747C110.617 90.139 110.519 90.0955 110.401 90.0429C110.145 89.9261 109.778 89.7527 109.316 89.5532C109.087 89.4493 108.834 89.3411 108.559 89.2302C108.286 89.1141 107.991 88.9994 107.677 88.883C107.051 88.6529 106.351 88.4129 105.587 88.2571C104.827 88.0968 104.068 88.0616 103.41 88.2101C103.079 88.2789 102.766 88.3471 102.488 88.4468C102.209 88.544 101.96 88.6576 101.743 88.7753C101.308 89.0104 101.005 89.2599 100.808 89.4396C100.611 89.6207 100.515 89.7314 100.507 89.7259C100.503 89.7239 100.524 89.6944 100.568 89.6401C100.61 89.5853 100.679 89.5081 100.773 89.4126C100.961 89.2227 101.26 88.9612 101.697 88.7134C101.915 88.5896 102.166 88.4697 102.45 88.3669C102.733 88.2613 103.053 88.1883 103.385 88.1168C104.057 87.9588 104.845 87.9925 105.616 88.1557C106.391 88.3141 107.094 88.5588 107.722 88.7951C108.036 88.9145 108.332 89.0327 108.603 89.1526C108.877 89.2672 109.129 89.3798 109.356 89.4878C109.814 89.6964 110.175 89.8796 110.424 90.0075C110.538 90.0669 110.632 90.1161 110.709 90.1564C110.774 90.1914 110.806 90.2112 110.804 90.2145Z" fill="#E0E0E0"/>
<path d="M96.8604 88.769C96.8635 88.7622 96.9388 88.7816 97.0729 88.8225C97.2078 88.8617 97.3978 88.9316 97.6259 89.0291C98.0826 89.2229 98.6834 89.5529 99.2474 90.0173C99.8101 90.4833 100.218 90.986 100.461 91.3703C100.584 91.5624 100.673 91.7225 100.724 91.8369C100.776 91.9505 100.802 92.0145 100.794 92.0173C100.775 92.0248 100.648 91.7778 100.387 91.4073C100.128 91.0368 99.7164 90.5504 99.1634 90.0923C98.6089 89.6361 98.0268 89.3023 97.5857 89.0942C97.1449 88.885 96.8525 88.786 96.8604 88.769Z" fill="#E0E0E0"/>
<path d="M89.3512 79.8509C89.3524 79.8476 89.4024 79.8601 89.4958 79.8876C89.6008 79.9197 89.7359 79.9611 89.9031 80.0121C90.0841 80.0695 90.2989 80.1375 90.5454 80.2156C90.7958 80.2955 91.0676 80.4134 91.3751 80.53C92.597 81.0067 94.2231 81.8091 95.7937 82.9493C96.5681 83.5286 97.2685 84.1175 97.8542 84.6931C98.4376 85.2697 98.9317 85.812 99.3167 86.2854C99.7043 86.7571 99.9982 87.15 100.199 87.4219C100.295 87.5504 100.372 87.654 100.432 87.7348C100.484 87.8065 100.51 87.8454 100.507 87.8474C100.504 87.8496 100.471 87.8149 100.412 87.7467C100.352 87.6787 100.266 87.5773 100.16 87.4444C99.9465 87.1791 99.6424 86.7932 99.2473 86.3285C98.8546 85.8621 98.356 85.3271 97.771 84.7569C97.1837 84.1879 96.4854 83.6045 95.7156 83.0288C94.1547 81.8955 92.5468 81.0886 91.339 80.5967C91.0351 80.4765 90.7668 80.3542 90.5198 80.2695C90.2766 80.1853 90.0651 80.112 89.8867 80.0502C89.7231 79.9917 89.5908 79.9444 89.4881 79.9074C89.397 79.8735 89.3499 79.8542 89.3512 79.8509Z" fill="#E0E0E0"/>
<path d="M105.811 81.5781C105.808 81.5849 105.712 81.5739 105.54 81.5482C105.447 81.5334 105.343 81.5169 105.228 81.4987C105.107 81.4784 104.965 81.478 104.812 81.4643C104.201 81.4263 103.312 81.4696 102.479 81.8599C102.058 82.0427 101.706 82.2894 101.417 82.5366C101.125 82.7822 100.902 83.038 100.735 83.2617C100.395 83.7097 100.29 84.0333 100.269 84.0269C100.262 84.0254 100.281 83.9431 100.338 83.7994C100.4 83.6584 100.496 83.4534 100.663 83.2228C100.824 82.99 101.043 82.7243 101.338 82.4693C101.629 82.2124 101.989 81.9563 102.422 81.7677C103.281 81.3653 104.201 81.333 104.819 81.3909C104.975 81.4096 105.118 81.4153 105.24 81.4412C105.354 81.4661 105.457 81.4883 105.55 81.5086C105.721 81.5468 105.813 81.5713 105.811 81.5781Z" fill="#E0E0E0"/>
<path d="M109.222 72.4842C109.223 72.4875 109.179 72.5109 109.093 72.5522C108.995 72.5978 108.87 72.6565 108.715 72.7289C108.385 72.8813 107.911 73.1062 107.336 73.3979C106.763 73.6934 106.088 74.0561 105.37 74.4972C104.654 74.9392 103.884 75.4534 103.174 76.0777C102.824 76.3919 102.502 76.7199 102.277 77.0767C102.054 77.4437 101.842 77.7981 101.646 78.1387C101.254 78.8189 100.934 79.4453 100.703 79.9834C100.473 80.5217 100.33 80.9701 100.245 81.2823C100.158 81.5944 100.126 81.7704 100.115 81.7689C100.111 81.7682 100.115 81.724 100.128 81.64C100.141 81.5557 100.161 81.4319 100.199 81.2739C100.27 80.9575 100.402 80.5035 100.623 79.9585C100.845 79.414 101.158 78.7811 101.546 78.0964C101.74 77.7537 101.95 77.3975 102.171 77.0297C102.405 76.6565 102.733 76.3239 103.088 76.0051C103.806 75.3733 104.582 74.8589 105.305 74.4187C106.031 73.9796 106.713 73.6221 107.293 73.3341C107.876 73.0499 108.357 72.8343 108.693 72.6928C108.853 72.6275 108.982 72.5744 109.083 72.5333C109.172 72.4981 109.22 72.4812 109.222 72.4842Z" fill="#E0E0E0"/>
<path d="M99.7048 81.3155C99.6966 81.3164 99.6731 81.2288 99.6375 81.0695C99.5978 80.8896 99.5482 80.6638 99.489 80.3957C99.3597 79.8278 99.1621 79.046 98.8472 78.2071C98.5352 77.3669 98.1555 76.6361 97.878 76.1087C97.7462 75.8601 97.6356 75.6509 97.547 75.4844C97.4699 75.3363 97.4308 75.2529 97.4382 75.2499C97.4456 75.2466 97.4991 75.324 97.5892 75.4663C97.6794 75.6089 97.8061 75.8168 97.9553 76.0773C98.2531 76.5974 98.6481 77.3284 98.9624 78.1752C99.2796 79.0207 99.4652 79.81 99.5732 80.3827C99.6265 80.6693 99.6646 80.9019 99.6841 81.0636C99.7053 81.2248 99.713 81.3144 99.7048 81.3155Z" fill="#E0E0E0"/>
<path d="M99.4594 74.6798C99.3741 73.5778 98.9566 72.507 98.3557 71.5309C96.7084 68.8544 93.6123 66.8702 90.1573 66.2769C92.6874 69.5175 95.2174 72.7581 97.7475 75.9987L98.7277 77.7338C99.3961 76.7909 99.5446 75.7817 99.4594 74.6798Z" fill="#E0E0E0"/>
<path d="M110.347 93.8391H92.6976V96.5273H110.347V93.8391Z" fill="#EBEBEB"/>
<path d="M94.0157 95.994L95.5185 104.335H107.235L109.029 95.994H94.0157Z" fill="#EBEBEB"/>
<path d="M110.337 96.5305C110.337 96.56 106.356 96.5838 101.446 96.5838C96.535 96.5838 92.555 96.56 92.555 96.5305C92.555 96.5011 96.535 96.4773 101.446 96.4773C106.356 96.4773 110.337 96.5013 110.337 96.5305Z" fill="#E0E0E0"/>
<path d="M32.6592 90.2736C33.6949 89.7529 34.9453 89.6341 36.138 89.748C36.7787 89.8092 37.451 89.9423 37.9087 90.3326C38.3662 90.7228 38.4929 91.4407 38.0183 91.8156C37.7359 92.0389 37.3258 92.0895 36.9423 92.1031C36.0161 92.1361 34.9806 92.0431 34.2707 92.5554C33.8657 92.8478 33.613 93.3144 33.1169 93.4717C32.6315 93.6257 32.0591 93.4009 31.7739 93.03C31.4885 92.6593 31.4503 92.1812 31.5456 91.7441C31.5456 91.7445 31.6157 90.7983 32.6592 90.2736Z" fill="#EBEBEB"/>
<path d="M30.0866 88.2432C30.7873 89.0128 32.0366 88.6903 32.5934 88.1757C33.1499 87.6609 33.3542 86.9426 33.5383 86.2579C33.9589 84.6937 34.379 83.0536 33.8984 81.5022C33.7548 81.0384 33.5216 80.58 33.1166 80.2495C32.7116 79.9191 32.109 79.7389 31.5773 79.8861C30.948 80.0601 30.5845 80.6154 30.3295 81.1394C29.5797 82.6799 29.2367 84.3655 29.3332 86.0331C29.3783 86.8119 29.5357 87.6237 30.0866 88.2432Z" fill="#EBEBEB"/>
<path d="M28.3694 89.472C29.0319 88.7185 29.101 87.6605 28.7303 86.7715C28.3597 85.8822 27.6014 85.1463 26.7435 84.5563C25.7374 83.8644 24.5732 83.3436 23.3367 83.0323C22.85 82.9098 22.3393 82.8189 21.8378 82.8834C21.3363 82.9479 20.8425 83.1925 20.6313 83.5885C20.319 84.1741 20.695 84.85 21.0903 85.3973C21.7869 86.3616 22.5717 87.2788 23.4355 88.1374C24.1303 88.8282 24.9193 89.505 25.9305 89.7852C26.9417 90.0655 27.9687 89.9802 28.4574 89.3655" fill="#EBEBEB"/>
<path d="M30.6706 98.3969C30.6829 98.3969 30.6946 98.2666 30.7069 98.031C30.7205 97.7653 30.7376 97.4317 30.7579 97.0346C30.7858 96.6151 30.826 96.1155 30.9273 95.5688C31.0285 95.0234 31.2025 94.4296 31.436 93.8246C31.6795 93.2227 31.9874 92.6718 32.3597 92.2254C32.7291 91.7773 33.1702 91.4449 33.5918 91.2456C34.0119 91.0427 34.3941 90.9508 34.6593 90.9054C34.9276 90.8694 35.0774 90.8441 35.0768 90.8339C35.0763 90.8236 34.9248 90.8289 34.6483 90.8478C34.3749 90.8762 33.9755 90.9543 33.5319 91.1527C33.0864 91.3474 32.6177 91.6858 32.2296 92.1438C31.8379 92.6001 31.5182 93.1635 31.2706 93.776C31.0331 94.3916 30.8623 94.9913 30.7681 95.5479C30.6742 96.1036 30.6465 96.6081 30.6342 97.0305C30.6237 97.4531 30.6309 97.7945 30.6388 98.0304C30.6475 98.2664 30.6585 98.3967 30.6706 98.3969Z" fill="#E0E0E0"/>
<path d="M30.8208 99.5365C30.8267 99.5359 30.827 99.4778 30.8219 99.3673C30.8137 99.2406 30.8032 99.0813 30.7906 98.8855C30.7635 98.4673 30.7261 97.8621 30.7061 97.1137C30.6567 95.6168 30.7069 94.0013 30.8559 91.7199C30.998 89.5747 31.212 87.0759 31.5003 85.4444C31.5607 85.0737 31.6242 84.7395 31.6851 84.4467C31.7424 84.1535 31.7911 83.9007 31.8407 83.6956C31.8822 83.5029 31.916 83.3458 31.9429 83.2211C31.9644 83.1122 31.9728 83.0543 31.9669 83.0532C31.9611 83.0521 31.9411 83.1076 31.9086 83.2145C31.8733 83.3377 31.829 83.493 31.7744 83.6838C31.7145 83.8873 31.6559 84.1389 31.5893 84.4315C31.5192 84.7235 31.447 85.0572 31.3787 85.4279C31.0853 86.9076 30.8052 88.9699 30.6537 91.2566C30.5044 93.5426 30.5019 95.6179 30.583 97.1172C30.6191 97.8669 30.6752 98.4726 30.7233 98.8902C30.7494 99.0853 30.7704 99.2441 30.7873 99.3702C30.8032 99.4798 30.8147 99.537 30.8208 99.5365Z" fill="#E0E0E0"/>
<path d="M30.5856 95.5446C30.5976 95.5437 30.5846 95.3649 30.5503 95.0412C30.5088 94.7187 30.4281 94.2534 30.2866 93.6856C30.1389 93.1193 29.9397 92.4479 29.6476 91.7219C29.5199 91.3897 29.2185 90.5935 28.5353 89.4145C27.6321 87.816 26.4596 86.529 25.4605 85.7443C25.2244 85.5346 24.9672 85.3874 24.7593 85.2411C24.6523 85.1714 24.557 85.1012 24.461 85.0466C24.3648 84.9958 24.2754 84.9487 24.1925 84.905C23.8692 84.7358 23.6884 84.6471 23.6825 84.6561C23.6564 84.69 24.406 85.0244 25.3757 85.8217C26.3416 86.6172 27.4829 87.8965 28.3789 89.4814C28.8768 90.3405 29.2349 91.1107 29.4955 91.7668C29.7943 92.4853 30.0042 93.1492 30.1665 93.7091C30.3224 94.2706 30.4212 94.7304 30.4832 95.0489C30.5375 95.3686 30.5736 95.5455 30.5856 95.5446Z" fill="#E0E0E0"/>
<path d="M26.1148 97.7556L26.5807 103.243H34.7832L35.2494 97.7556H26.1148Z" fill="#E0E0E0"/>
<path d="M36.2281 95.593H25.3224V97.7558H36.2281V95.593Z" fill="#E0E0E0"/>
<path d="M25.3224 103.033V103.632H25.835H36.0478V103.033H25.3224Z" fill="#EBEBEB"/>
<path d="M26.3372 104.687L25.835 103.632H35.6572L35.0712 104.687H26.3372Z" fill="#E0E0E0"/>
<path d="M35.0971 99.549C35.0989 99.5503 35.0858 99.5675 35.0589 99.5994C35.0264 99.6365 34.986 99.6825 34.9363 99.7391C34.8198 99.8671 34.6598 100.043 34.4583 100.265L34.4371 100.288L34.4164 100.264C34.1161 99.9065 33.7149 99.4297 33.2423 98.8683H33.3099C32.9607 99.2931 32.5719 99.7666 32.1541 100.275L32.118 100.319L32.0775 100.277C31.651 99.8414 31.1877 99.3677 30.7069 98.8758L30.786 98.8749C30.7622 98.9006 30.7364 98.9284 30.7105 98.9563C30.2853 99.4143 29.8739 99.8576 29.4848 100.277L29.4438 100.321L29.4062 100.275C28.9902 99.769 28.6013 99.2962 28.2498 98.869L28.3172 98.8716C27.7473 99.4295 27.264 99.9027 26.893 100.266L26.8677 100.291L26.8485 100.263C26.6608 99.9918 26.5111 99.7758 26.4025 99.6192C26.3559 99.5492 26.3183 99.4929 26.2881 99.4478C26.263 99.4086 26.251 99.3879 26.253 99.3866C26.2551 99.3855 26.2715 99.404 26.3009 99.441C26.3342 99.4843 26.3759 99.5386 26.4274 99.606C26.5413 99.7597 26.6985 99.9718 26.8956 100.238L26.851 100.235C27.2161 99.8673 27.6915 99.3884 28.2524 98.8236L28.2877 98.788L28.3197 98.8263C28.6743 99.2518 29.0667 99.7223 29.4866 100.226L29.408 100.224C29.7961 99.8044 30.2067 99.3604 30.6306 98.9017C30.6565 98.8738 30.6823 98.8461 30.7062 98.8203L30.7451 98.7783L30.785 98.8195C31.2647 99.312 31.7266 99.7868 32.152 100.224L32.0752 100.226C32.4971 99.7208 32.8898 99.2498 33.2426 98.8269L33.2769 98.7858L33.3102 98.8269C33.7725 99.3945 34.1652 99.8766 34.4594 100.237L34.4176 100.236C34.627 100.02 34.7934 99.8491 34.9148 99.7241C34.9688 99.6704 35.0126 99.6269 35.0479 99.5917C35.0786 99.5622 35.0953 99.5477 35.0971 99.549Z" fill="#F5F5F5"/>
<path d="M35.3635 97.7196C35.3635 97.7438 33.3084 97.7636 30.7735 97.7636C28.2378 97.7636 26.1829 97.744 26.1829 97.7196C26.1829 97.6954 28.2378 97.6758 30.7735 97.6758C33.3081 97.6756 35.3635 97.6954 35.3635 97.7196Z" fill="#F5F5F5"/>
<path d="M35.778 103.691C35.778 103.716 33.5444 103.735 30.7896 103.735C28.0337 103.735 25.8007 103.716 25.8007 103.691C25.8007 103.667 28.0337 103.648 30.7896 103.648C33.5441 103.648 35.778 103.667 35.778 103.691Z" fill="#F5F5F5"/>
<path d="M118.653 104.435C118.653 104.467 94.1775 104.493 63.9926 104.493C33.7971 104.493 9.32709 104.467 9.32709 104.435C9.32709 104.404 33.7971 104.378 63.9926 104.378C94.1775 104.378 118.653 104.404 118.653 104.435Z" fill="#84DA49"/>
<path d="M69.1023 79.0373C69.1213 79.0485 68.9377 79.2843 68.7247 79.7019C68.5066 80.1172 68.267 80.7148 68.0591 81.3882C67.8546 82.0627 67.7164 82.6838 67.6365 83.1356C67.5546 83.5873 67.5262 83.8698 67.5057 83.8687C67.4965 83.8682 67.4936 83.7972 67.4962 83.6683C67.5003 83.5396 67.5128 83.3534 67.543 83.1249C67.5994 82.6673 67.724 82.0391 67.9301 81.3589C68.1398 80.68 68.3963 80.0796 68.6395 79.6673C68.7573 79.4601 68.8714 79.2999 68.9562 79.1937C69.0432 79.0883 69.0947 79.0326 69.1023 79.0373Z" fill="#84DA49"/>
<path d="M74.5431 68.9595C72.9582 69.6539 71.5477 70.621 70.3778 71.7709L71.3321 73.1169C71.3321 73.1169 70.2244 72.6287 69.7488 72.4307C68.9582 73.3228 68.3044 74.3044 67.817 75.3435C67.915 75.4366 68.0295 75.5202 68.1413 75.6007C68.4388 75.8147 68.7363 76.0288 69.0338 76.2426C69.1602 76.3335 69.2974 76.4853 69.1984 76.5986C69.1321 76.6745 69.0012 76.6734 68.8917 76.6624C68.3833 76.6116 67.8823 76.5069 67.403 76.3522C67.1775 76.99 67.0124 77.6434 66.9164 78.3062C66.7449 79.4927 66.8306 80.8211 67.7755 81.6986C67.7755 81.6986 67.903 80.4858 70.5867 76.7838C73.2703 73.0819 79.5226 68.8009 79.5226 68.8009C78.1302 67.8833 76.1065 68.2747 74.5431 68.9595Z" fill="#0F4332" fill-opacity="0.7"/>
<path d="M69.3801 78.3969C69.3714 78.4288 68.8376 78.3465 68.1766 78.2695C67.5157 78.191 66.9758 78.147 66.9775 78.1142C66.9786 78.0839 67.5267 78.0766 68.1948 78.156C68.863 78.2339 69.3885 78.3672 69.3801 78.3969Z" fill="#84DA49"/>
<path d="M71.5395 75.6275C71.5221 75.6555 70.8291 75.3651 69.992 74.9792C69.1543 74.5931 68.4898 74.2576 68.5072 74.2296C68.5246 74.2017 69.2173 74.4921 70.055 74.8782C70.8921 75.2641 71.5569 75.5998 71.5395 75.6275Z" fill="#84DA49"/>
<path d="M71.6611 74.8963C71.6437 74.9242 71.1473 74.7227 70.5526 74.4464C69.9577 74.1701 69.49 73.9234 69.5074 73.8955C69.5248 73.8678 70.0212 74.0691 70.6161 74.3456C71.2105 74.6217 71.6785 74.8683 71.6611 74.8963Z" fill="#84DA49"/>
<path d="M72.1324 71.3481C72.1613 71.3285 72.575 71.7408 73.0563 72.2688C73.5378 72.7968 73.9044 73.2407 73.8755 73.2601C73.8466 73.2797 73.4329 72.8674 72.9513 72.3394C72.4701 71.8114 72.1035 71.3677 72.1324 71.3481Z" fill="#84DA49"/>
<path d="M73.5921 70.5107C73.6313 70.503 73.7721 71.002 74.0798 71.5709C74.3834 72.1418 74.7334 72.5576 74.7011 72.5783C74.6763 72.5974 74.27 72.2038 73.9587 71.6189C73.6436 71.0356 73.5591 70.5144 73.5921 70.5107Z" fill="#84DA49"/>
<path d="M75.1245 70.5873C75.1573 70.5728 75.3273 70.8007 75.5042 71.0962C75.6811 71.3919 75.7981 71.6431 75.7653 71.6576C75.7325 71.6721 75.5625 71.4442 75.3856 71.1488C75.2087 70.8531 75.0918 70.6016 75.1245 70.5873Z" fill="#84DA49"/>
<path d="M76.4944 70.1946C76.5246 70.1777 76.6393 70.2863 76.7092 70.4529C76.7801 70.6192 76.7732 70.7657 76.7376 70.7695C76.7005 70.7741 76.6495 70.6454 76.584 70.492C76.5195 70.3383 76.4624 70.2115 76.4944 70.1946Z" fill="#84DA49"/>
<path d="M64.3781 76.3384C64.3758 76.3386 64.3697 76.3146 64.3602 76.2671C64.3502 76.2136 64.3372 76.1441 64.3205 76.0565C64.2872 75.8636 64.2404 75.5917 64.1808 75.2452C64.0597 74.5405 63.9045 73.5182 63.7258 72.2538C63.3656 69.7252 62.9571 66.2234 62.5424 62.3541C62.1276 58.4832 61.7339 54.9812 61.3978 52.4512C61.2311 51.1862 61.0901 50.1628 60.9848 49.4566C60.936 49.1087 60.8973 48.8359 60.8702 48.6426C60.8592 48.5543 60.8504 48.4844 60.8435 48.4305C60.8382 48.3825 60.8366 48.3579 60.8389 48.3577C60.8412 48.3574 60.8474 48.3814 60.8568 48.4289C60.8668 48.4824 60.8799 48.5519 60.8965 48.6395C60.9298 48.8322 60.9764 49.1041 61.036 49.4508C61.1571 50.1555 61.3123 51.1776 61.491 52.442C61.8512 54.9706 62.2597 58.4728 62.6745 62.3435C63.0892 66.2131 63.4826 69.7146 63.8188 72.2446C63.9854 73.5096 64.1265 74.533 64.2317 75.2395C64.2808 75.5873 64.3192 75.8601 64.3466 76.0537C64.3576 76.1419 64.3664 76.2119 64.3733 76.2658C64.3789 76.3133 64.3804 76.3381 64.3781 76.3384Z" fill="#84DA49"/>
<path d="M50.6614 19.1751C53.7761 19.946 54.2741 21.8836 56.3779 24.0024C59.6987 27.3468 62.9548 30.8435 64.8458 34.9285C66.7369 39.0136 67.1061 43.8235 64.704 47.7052C63.529 49.604 61.4515 51.3196 58.9494 51.3561C57.3028 51.3801 55.7496 50.6701 54.4763 49.7727C50.9061 47.2568 49.1164 43.3536 47.8037 39.5496C46.4709 35.6881 45.4774 31.7402 44.8346 27.7507C44.5696 26.1058 44.3648 24.425 44.7176 22.7924C44.9541 21.6972 45.4751 20.6166 46.2902 19.7625C46.9591 19.0616 48.0338 18.7475 49.0701 18.916L50.6614 19.1751Z" fill="#0F4332" fill-opacity="0.7"/>
<path d="M48.0169 21.0944C48.0189 21.0935 48.0351 21.1175 48.0645 21.1652C48.0962 21.2182 48.1385 21.2889 48.192 21.3784C48.3049 21.5729 48.4657 21.8496 48.671 22.203C49.0865 22.9193 49.6709 23.9627 50.378 25.2585C51.7929 27.8493 53.6653 31.4628 55.5592 35.5156C57.4507 39.5709 59.0039 43.2948 60.065 46.0074C60.5962 47.3637 61.013 48.465 61.2887 49.2293C61.4246 49.6066 61.5309 49.9018 61.6056 50.1095C61.6389 50.2061 61.665 50.282 61.6847 50.3392C61.7019 50.3911 61.7096 50.4182 61.7073 50.4186C61.705 50.4193 61.6929 50.3935 61.6717 50.3427C61.6486 50.2864 61.6184 50.2114 61.5798 50.1163C61.4994 49.9102 61.3852 49.6172 61.239 49.2427C60.9482 48.4828 60.5179 47.3857 59.9754 46.0334C58.8918 43.3282 57.3256 39.6109 55.435 35.5578C53.5421 31.5072 51.6846 27.8908 50.292 25.2922C49.5964 23.9927 49.0248 22.9441 48.6239 22.2221C48.4283 21.8648 48.2752 21.585 48.1674 21.3883C48.1188 21.2966 48.0806 21.2246 48.0517 21.1701C48.0269 21.121 48.0148 21.0953 48.0169 21.0944Z" fill="#84DA49"/>
<path d="M65.152 83.4459C65.1497 83.4461 65.1438 83.4186 65.1341 83.3645C65.1244 83.3046 65.1116 83.2252 65.0952 83.1242C65.0629 82.906 65.0171 82.5956 64.9585 82.1989C64.8986 81.7972 64.8302 81.305 64.7647 80.7326C64.6976 80.1602 64.6111 79.5092 64.5456 78.7871C64.4721 78.0658 64.3943 77.2753 64.3339 76.425C64.2601 75.5756 64.2133 74.6665 64.1575 73.71C64.0666 71.7964 64.0141 69.6908 64.0361 67.4805C64.0661 65.2695 64.1682 63.1647 64.3044 61.2529C64.3828 60.2975 64.4509 59.3893 64.5448 58.5414C64.6252 57.6924 64.7217 56.9035 64.8123 56.1835C64.895 55.4627 64.9966 54.8133 65.0773 54.2422C65.1561 53.6708 65.2363 53.1802 65.3056 52.7796C65.3737 52.3841 65.4267 52.0745 65.4641 51.8572C65.4828 51.7564 65.4976 51.6772 65.5086 51.6176C65.5194 51.5637 65.526 51.5362 65.5284 51.5366C65.5307 51.5368 65.5286 51.565 65.5222 51.6193C65.5143 51.6794 65.504 51.759 65.4907 51.8605C65.4592 52.0787 65.4144 52.3891 65.3571 52.7856C65.2956 53.1868 65.2232 53.6781 65.1513 54.2499C65.0778 54.8214 64.9826 55.4711 64.906 56.1918C64.8215 56.9119 64.7307 57.7008 64.6549 58.5493C64.5658 59.397 64.5018 60.3047 64.427 61.2595C64.2978 63.17 64.1995 65.273 64.1695 67.4818C64.1475 69.6899 64.1961 71.7936 64.2801 73.7056C64.3323 74.6613 64.3751 75.5699 64.4439 76.4188C64.4995 77.2685 64.5719 78.0587 64.6393 78.7801C64.6989 79.5021 64.7785 80.1533 64.8387 80.726C64.8971 81.2989 64.958 81.7915 65.01 82.1938C65.0578 82.5914 65.0955 82.9027 65.1218 83.1214C65.1326 83.223 65.1413 83.3029 65.1477 83.3629C65.1528 83.4177 65.1543 83.4457 65.152 83.4459Z" fill="#84DA49"/>
<path d="M64.0335 66.5089C64.0292 66.5078 64.0471 66.4476 64.0855 66.334C64.1288 66.2108 64.1866 66.0461 64.2591 65.839C64.4119 65.4098 64.641 64.7907 64.9303 64.0276C65.5086 62.5012 66.3378 60.4009 67.3073 58.0975C68.278 55.7936 69.2052 53.7236 69.8977 52.2327C70.2438 51.4871 70.5288 50.8856 70.731 50.4718C70.8293 50.2729 70.9077 50.1145 70.9663 49.9962C71.0213 49.8879 71.0525 49.8318 71.0566 49.8332C71.061 49.8347 71.0382 49.8937 70.9911 50.0048C70.9384 50.1251 70.8677 50.2861 70.7791 50.4883C70.5869 50.918 70.3171 51.5212 69.9855 52.2622C69.3158 53.7602 68.4029 55.8337 67.4327 58.1364C66.4635 60.4387 65.621 62.5338 65.0199 64.0531C64.7227 64.8048 64.4808 65.4169 64.3085 65.8527C64.2261 66.0568 64.1603 66.2194 64.1111 66.3411C64.0645 66.4524 64.0379 66.5102 64.0335 66.5089Z" fill="#84DA49"/>
<path d="M65.0322 29.2341C65.0345 29.2344 65.034 29.2621 65.0307 29.3162C65.0263 29.376 65.0204 29.4552 65.013 29.556C64.9938 29.7734 64.9667 30.0822 64.9318 30.4769C64.8556 31.2762 64.7583 32.4338 64.651 33.8647C64.5427 35.2956 64.4383 37.0006 64.3492 38.895C64.2655 40.7894 64.1989 42.8728 64.1677 45.0605C64.1116 49.4374 64.1987 53.3996 64.2903 56.2664C64.341 57.6949 64.382 58.8532 64.4106 59.6614C64.4242 60.057 64.4349 60.3668 64.4426 60.5846C64.4447 60.6856 64.4462 60.765 64.4475 60.8248C64.4477 60.8789 64.447 60.9067 64.4447 60.9069C64.4424 60.9069 64.4388 60.8794 64.4339 60.8255C64.4293 60.7656 64.4234 60.6864 64.4157 60.5857C64.4024 60.3681 64.3832 60.0586 64.3589 59.6632C64.311 58.8622 64.2542 57.7024 64.1964 56.2688C64.0804 53.4018 63.9782 49.4381 64.0346 45.059C64.0658 42.8702 64.1362 40.7857 64.2266 38.8906C64.3223 36.9955 64.4367 35.2901 64.5571 33.8592C64.6764 32.4283 64.788 31.2713 64.8801 30.473C64.9257 30.0789 64.9613 29.7705 64.9864 29.5538C64.9994 29.4535 65.0097 29.3745 65.0173 29.3149C65.0248 29.2614 65.0299 29.2339 65.0322 29.2341Z" fill="#84DA49"/>
<g opacity="0.3">
<path d="M50.6086 39.145C51.9209 39.0962 53.2004 38.7939 54.4663 38.4931C53.3115 38.3358 52.1495 38.1781 50.9806 38.1975C50.3872 38.2074 49.7892 38.2657 49.2134 38.3889C50.1619 37.9368 50.9634 37.2563 51.4913 36.4414C51.4995 36.4289 51.5067 36.4159 51.5149 36.4031C52.181 35.8575 52.8468 35.3119 53.5129 34.7661L53.4835 34.7331C52.9244 35.0825 52.3745 35.4428 51.8323 35.8113C52.2122 34.9606 52.322 34.0208 52.1349 33.1234C51.7593 33.8047 51.1713 34.3974 50.4525 34.8288C50.623 34.4141 50.7761 33.9939 50.8462 33.5592C50.9366 32.9991 50.88 32.4053 50.5633 31.9094C49.6297 33.3982 48.1439 34.6304 47.4929 36.2265C47.4542 36.3213 47.4199 36.417 47.3874 36.5131C47.1982 35.1575 46.8411 33.8142 46.8216 32.4491C46.6509 33.3225 46.6073 34.2062 46.626 35.0922C46.5354 34.9921 46.4415 34.8942 46.3467 34.7969C46.7707 36.3739 47.2494 37.9401 47.7837 39.4922C48.0374 39.4552 48.3049 39.4662 48.557 39.5236C48.3425 39.5186 48.1198 39.5285 47.8863 39.5599C47.8605 39.5634 47.8359 39.567 47.8105 39.5707C48.013 40.1563 48.2265 40.7442 48.4564 41.3292C48.7158 41.2907 49.0166 41.288 49.4228 41.3369C49.549 41.352 49.6796 41.3844 49.8135 41.431L50.636 41.8627C52.4065 43.0566 54.3419 45.8317 54.3419 45.8317L52.6262 42.4424C52.4728 42.2576 51.7481 40.7545 50.294 39.9795C50.1453 39.8048 49.9666 39.6492 49.7615 39.5234C49.4193 39.3133 49.015 39.1881 48.598 39.1439C49.2654 39.1294 49.9407 39.1699 50.6086 39.145Z" fill="#84DA49"/>
</g>
<path d="M36.6223 40.3379C38.0518 40.5737 39.9373 40.8835 41.3668 41.1193C41.9026 41.2078 42.5101 41.3404 42.7582 41.758L42.4159 41.9349C41.5381 41.5417 40.5233 41.305 39.5815 41.0437C38.7318 40.8078 36.4081 40.4301 36.6223 40.3379Z" fill="#84DA49"/>
<path d="M43.9652 40.5343C44.8832 39.9121 46.0344 39.5859 47.1926 39.4473C48.3505 39.3087 49.526 39.3467 50.6944 39.385C49.4789 39.8129 48.2504 40.2437 46.954 40.426C45.8821 40.577 44.7667 40.558 43.7455 40.8757L43.9652 40.5343Z" fill="#FF725E"/>
<g opacity="0.3">
<path d="M43.9652 40.5343C44.8832 39.9121 46.0344 39.5859 47.1926 39.4473C48.3505 39.3087 49.526 39.3467 50.6944 39.385C49.4789 39.8129 48.2504 40.2437 46.954 40.426C45.8821 40.577 44.7667 40.558 43.7455 40.8757L43.9652 40.5343Z" fill="#84DA49"/>
</g>
<path d="M49.2327 35.7821C48.521 36.5229 47.8093 37.2636 47.0976 38.0041C46.6975 38.4206 46.2961 38.8382 45.844 39.2133C45.1433 39.7945 44.3146 40.2803 43.7796 40.9796C43.8961 40.6758 44.1331 40.4189 44.3687 40.1714C45.8581 38.6054 47.4734 37.1277 49.1989 35.7524" fill="#84DA49"/>
<path d="M43.4952 41.4475C43.3242 40.2536 43.155 39.0192 43.4573 37.8466C43.883 36.1952 45.1881 34.8202 45.9093 33.2466C46.292 33.7066 46.4302 34.2905 46.4182 34.8559C46.4059 35.4213 46.2541 35.9768 46.1028 36.5272C45.7994 37.6316 45.4853 38.7587 44.7823 39.719C44.4846 40.1258 43.7604 40.8337 43.4952 41.4475Z" fill="#FF725E"/>
<g opacity="0.3">
<path d="M43.4952 41.4475C43.3242 40.2536 43.155 39.0192 43.4573 37.8466C43.883 36.1952 45.1881 34.8202 45.9093 33.2466C46.292 33.7066 46.4302 34.2905 46.4182 34.8559C46.4059 35.4213 46.2541 35.9768 46.1028 36.5272C45.7994 37.6316 45.4853 38.7587 44.7823 39.719C44.4846 40.1258 43.7604 40.8337 43.4952 41.4475Z" fill="#84DA49"/>
</g>
<path d="M44.4009 40.5121C44.6508 40.3102 44.9214 40.1278 45.2099 39.9683C46.2085 39.4159 47.0067 38.5968 47.457 37.6517C47.9614 36.5935 48.0264 35.3852 47.6375 34.2916C47.2981 35.1615 46.6289 35.9339 45.7559 36.4624C45.7559 36.4624 45.1192 36.4962 44.5911 37.6226C44.0632 38.749 43.4424 41.287 43.4424 41.287L44.4009 40.5121Z" fill="#FF725E"/>
<path d="M39.3874 43.6317C41.6783 42.6694 41.2903 41.847 44.3085 41.116C47.3267 40.3849 49.1556 43.2508 49.4131 43.4939L52.2394 46.6842C52.2394 46.6842 48.0456 42.7561 46.0798 42.7231C44.1139 42.6901 44.6979 43.567 40.8013 44.5108C36.9047 45.4546 35.1987 45.1299 35.1987 45.1299C35.1987 45.1299 37.0965 44.5939 39.3874 43.6317Z" fill="#84DA49"/>
<path d="M45.2198 41.0565C44.6141 40.9083 43.8917 41.0255 43.4944 41.4455C43.5896 41.0634 43.9347 40.7609 44.3796 40.6795C44.9812 40.5695 45.6264 40.6346 46.1655 40.8882C46.9417 41.2534 47.458 42.0078 47.4148 42.7675C47.3528 43.8514 46.293 44.6784 45.8076 45.6803C45.9766 45.0044 46.1455 44.3284 46.3147 43.6525C46.3967 43.3254 46.4786 42.9963 46.4906 42.6619C46.5034 42.3046 46.4299 41.9341 46.1977 41.6378C45.9717 41.3491 45.6089 41.1518 45.2198 41.0565Z" fill="#FF725E"/>
<path d="M42.9693 39.3601C42.5718 37.6457 42.1724 35.9105 42.2687 34.1642C42.5285 35.8555 43.308 37.4593 43.6349 39.1423C43.6772 39.3601 43.712 39.5823 43.6779 39.8012C43.6439 40.0201 43.5947 41.0757 43.3925 41.2119L43.361 41.1157C43.3014 40.7096 43.0559 39.7335 42.9693 39.3601Z" fill="#84DA49"/>
<path d="M40.3599 34.2472C40.5476 34.8661 40.9062 35.4462 41.3985 35.9258C41.8127 36.3297 42.3168 36.661 42.7231 37.0711C43.1294 37.4812 43.4409 38.0074 43.3572 38.5412C43.2973 38.9237 43.0428 39.2632 42.9315 39.6372C42.7489 40.2499 42.9914 40.9416 43.5369 41.366C43.521 41.3646 43.5198 41.4632 43.4683 41.443C42.0321 40.876 40.9321 39.6429 40.3238 38.3803C39.6936 37.0722 39.7013 35.5445 40.3599 34.2472Z" fill="#FF725E"/>
<path d="M40.36 34.2472C40.3587 34.2624 40.2642 34.4635 40.1275 34.872C39.9985 35.2768 39.8638 35.8847 39.9161 36.6362C39.9429 37.0108 40.0182 37.4194 40.1629 37.8427C40.3103 38.2644 40.5335 38.6991 40.8195 39.1305C41.3888 39.9846 42.2385 40.865 43.4389 41.3662L43.4824 41.3849C43.4893 41.3884 43.5016 41.3917 43.4883 41.3886C43.4755 41.3853 43.455 41.3932 43.4514 41.3983C43.445 41.4051 43.453 41.3959 43.4555 41.3853L43.4622 41.3657L43.4686 41.3503C43.4722 41.3446 43.4696 41.3459 43.4791 41.3345C43.4834 41.3299 43.4862 41.3266 43.4929 41.322C43.5054 41.3129 43.5269 41.3077 43.5428 41.309L43.4921 41.4084C42.9832 41.0091 42.7495 40.4116 42.8183 39.8631C42.8905 39.3037 43.3111 38.8734 43.3086 38.3929C43.3188 37.915 43.0423 37.4882 42.7349 37.1576C42.4187 36.8236 42.0588 36.5583 41.7516 36.2974C41.118 35.7839 40.7639 35.2442 40.5814 34.8621C40.488 34.6703 40.4329 34.5158 40.4004 34.4104C40.3682 34.3084 40.3633 34.2527 40.36 34.2472C40.3579 34.2415 40.3843 34.2969 40.4255 34.4034C40.466 34.5061 40.5284 34.6571 40.6283 34.8441C40.8241 35.2178 41.1822 35.7397 41.8161 36.2393C42.1251 36.4949 42.4901 36.7572 42.8196 37.098C43.1391 37.4363 43.4363 37.8774 43.4302 38.3951C43.4279 38.922 43.0039 39.3598 42.9474 39.875C42.8841 40.3885 43.1069 40.9521 43.5815 41.3235L43.6273 41.3594L43.5364 41.3688C43.5333 41.369 43.5502 41.3827 43.5822 41.3926C43.5999 41.3976 43.5866 41.3952 43.5897 41.399L43.5833 41.4181C43.5769 41.4331 43.5746 41.4509 43.5464 41.4788C43.5313 41.494 43.4947 41.5072 43.4655 41.5017C43.4363 41.4953 43.434 41.4916 43.4263 41.4889L43.3815 41.4698C42.7646 41.2177 42.2377 40.8547 41.7974 40.4574C41.3568 40.0583 40.9997 39.622 40.7125 39.1827C40.4255 38.7436 40.2028 38.3011 40.0569 37.8695C39.9143 37.4374 39.8434 37.0214 39.8221 36.6408C39.7812 35.8772 39.9325 35.2643 40.0779 34.8599C40.2199 34.4555 40.3707 34.2349 40.36 34.2472Z" fill="#84DA49"/>
<path d="M43.6554 38.6342C43.647 38.6344 43.6357 38.577 43.6314 38.472C43.6265 38.3671 43.6334 38.2146 43.6649 38.0283C43.7243 37.6554 43.9124 37.1514 44.2486 36.6551C44.5844 36.1585 44.9748 35.7614 45.2641 35.4847C45.5557 35.2086 45.7498 35.0495 45.7628 35.0594C45.7771 35.0704 45.6077 35.249 45.3358 35.5372C45.066 35.8261 44.6925 36.2265 44.364 36.7125C44.0353 37.198 43.8392 37.6822 43.7576 38.0426C43.6723 38.4027 43.6782 38.634 43.6554 38.6342Z" fill="#84DA49"/>
<path d="M45.4019 40.0096C45.3973 39.995 45.6031 39.9315 45.9443 39.8538C46.2853 39.7759 46.7628 39.6875 47.2963 39.6219C47.83 39.5568 48.3175 39.5273 48.67 39.5203C49.0227 39.513 49.2411 39.5247 49.2414 39.5396C49.2424 39.5737 48.3735 39.6041 47.315 39.7354C46.2564 39.8633 45.4121 40.0426 45.4019 40.0096Z" fill="#84DA49"/>
<path d="M62.1494 58.171C62.145 58.1721 62.1176 58.1228 62.0692 58.0276C62.0173 57.9217 61.9494 57.7831 61.8647 57.6102C61.8196 57.52 61.7759 57.4175 61.7172 57.3093C61.6522 57.2026 61.5823 57.0875 61.5073 56.9645C61.3545 56.7183 61.1976 56.4304 60.9761 56.1342C60.1515 54.9205 58.8296 53.3394 57.2582 51.6713C55.689 50 54.1752 48.5533 53.0744 47.5116C52.5271 47.0009 52.0809 46.5845 51.7601 46.2855C51.6122 46.1476 51.4934 46.0367 51.4025 45.9522C51.3216 45.8754 51.2801 45.8341 51.2834 45.8312C51.2865 45.8286 51.3344 45.8644 51.4217 45.9361C51.5169 46.0169 51.6418 46.1227 51.7975 46.2547C52.1201 46.5345 52.5837 46.9422 53.1435 47.4568C54.263 48.4853 55.7898 49.9252 57.3619 51.5994C58.9361 53.2703 60.2504 54.8642 61.0578 56.094C61.2749 56.3936 61.4269 56.6862 61.5741 56.9361C61.6458 57.0611 61.7129 57.1781 61.7748 57.2866C61.8304 57.3968 61.8711 57.5013 61.9126 57.5933C61.9878 57.7699 62.0482 57.9118 62.0943 58.0199C62.1348 58.118 62.1537 58.1699 62.1494 58.171Z" fill="#84DA49"/>
<path d="M66.3388 50.1333C66.3388 50.1333 62.3688 50.0412 60.8215 48.0876C59.2742 46.134 61.3724 38.4346 69.8306 34.5606L72.0182 36.4502L70.8605 33.2263C70.8605 33.2263 73.0061 29.7873 81.784 28.7379C81.784 28.7379 84.6817 28.1008 86.5546 28.5458C88.4275 28.9909 87.8602 30.1078 87.8602 30.1078C87.8602 30.1078 67.0382 45.6623 66.9476 45.8686C66.8569 46.075 66.3388 50.1333 66.3388 50.1333Z" fill="#0F4332" fill-opacity="0.7"/>
<path opacity="0.3" d="M86.5548 28.5458C84.6819 28.1008 81.7842 28.7379 81.7842 28.7379C73.0062 29.7871 70.8607 33.2263 70.8607 33.2263L72.0183 36.4502L69.8308 34.5606C61.3726 38.4346 59.2744 46.134 60.8217 48.0876C62.3689 50.0412 66.339 50.1333 66.339 50.1333C66.339 50.1333 66.8571 46.075 66.948 45.8686C67.0386 45.6623 87.8606 30.1078 87.8606 30.1078C87.8606 30.1078 88.4277 28.9909 86.5548 28.5458Z" fill="#84DA49"/>
<path d="M77.4026 34.6775C74.4427 35.9871 71.4127 37.347 69.0468 39.3283C69.5014 39.6754 69.973 40.0061 70.4609 40.3181C70.7607 40.5097 71.0963 40.74 71.1101 41.061C70.015 40.9008 68.9295 40.6925 67.8584 40.4395C64.6387 43.8288 63.6946 48.38 62.8477 52.6977C62.8339 52.7681 62.8262 52.8398 62.8349 52.9109C62.8892 53.3484 63.3789 53.379 63.7724 53.3597C64.7257 53.313 65.6755 53.2127 66.6137 53.0596C66.6137 53.0596 66.6137 53.0596 68.8051 48.9779C70.9965 44.8963 78.8224 37.5742 81.8749 35.3368C84.9275 33.0992 87.4624 30.8387 87.6065 30.5589C87.6918 30.3932 87.7665 30.2238 87.8464 30.0562C84.3653 31.5966 80.884 33.137 77.4026 34.6775Z" fill="#0F4332" fill-opacity="0.7"/>
<path d="M76.2583 39.9915C76.2476 40.005 75.9844 39.8642 75.562 39.6338C75.1396 39.4033 74.5564 39.0849 73.9064 38.7419C73.2559 38.399 72.6615 38.0962 72.2312 37.8769C71.8008 37.6576 71.5359 37.5196 71.5448 37.5051C71.5533 37.4917 71.8344 37.6045 72.2775 37.8061C72.7204 38.0076 73.324 38.3002 73.9763 38.644C74.6281 38.9881 75.2049 39.3181 75.6145 39.5663C76.0241 39.8147 76.2686 39.979 76.2583 39.9915Z" fill="#84DA49"/>
<path d="M77.2516 38.4452C77.2308 38.4714 76.734 38.21 76.1423 37.8617C75.5502 37.5133 75.0874 37.2097 75.1081 37.1837C75.1288 37.1575 75.6255 37.4189 76.2176 37.7674C76.8095 38.1156 77.2726 38.4192 77.2516 38.4452Z" fill="#84DA49"/>
<path d="M74.8674 36.7789C74.8454 36.8042 74.7423 36.7699 74.6373 36.7021C74.5323 36.6343 74.465 36.5591 74.487 36.5336C74.509 36.5083 74.6122 36.5426 74.7172 36.6104C74.8221 36.6781 74.8895 36.7536 74.8674 36.7789Z" fill="#84DA49"/>
<path d="M79.4363 36.8163C79.4081 36.8379 78.9411 36.4256 78.3608 35.9223C77.781 35.418 77.3061 35.0128 77.3317 34.9888C77.3557 34.9659 77.8731 35.3351 78.4555 35.8417C79.0387 36.3475 79.4631 36.7959 79.4363 36.8163Z" fill="#84DA49"/>
<path d="M80.341 35.4286C80.3753 35.4169 80.4954 35.6101 80.609 35.8598C80.7227 36.1095 80.7872 36.3214 80.7529 36.3328C80.7186 36.3442 80.5985 36.1513 80.4849 35.9016C80.3712 35.6519 80.3067 35.44 80.341 35.4286Z" fill="#84DA49"/>
<path d="M71.3797 39.9051C71.3905 39.8919 71.582 39.9907 71.8864 40.1561C72.2337 40.346 72.6326 40.5642 73.0727 40.8049C73.5148 41.0436 73.9149 41.2599 74.2633 41.4482C74.5677 41.6136 74.7536 41.7201 74.7443 41.734C74.7354 41.7474 74.5329 41.6658 74.2157 41.5179C73.8985 41.3701 73.4671 41.1547 73.0015 40.9017C72.5361 40.6487 72.1247 40.406 71.8334 40.2232C71.5418 40.04 71.3692 39.9176 71.3797 39.9051Z" fill="#84DA49"/>
<path d="M69.6374 47.7697C69.6366 47.7864 69.3294 47.7871 68.8343 47.7893C68.3389 47.7912 67.6552 47.7978 66.9007 47.8242C66.146 47.8509 65.4638 47.8922 64.97 47.925C64.4762 47.9576 64.1702 47.9782 64.1677 47.9617C64.1654 47.9468 64.4675 47.8977 64.9605 47.8443C65.4533 47.7908 66.1373 47.7365 66.8954 47.7098C67.6529 47.6834 68.34 47.6896 68.8361 47.7085C69.3322 47.7268 69.6381 47.7547 69.6374 47.7697Z" fill="#84DA49"/>
<path d="M70.2078 46.953C70.2024 46.969 69.9518 46.9187 69.5475 46.8401C69.1433 46.7614 68.5837 46.6584 67.9608 46.5673C67.3377 46.4767 66.7699 46.4151 66.358 46.3746C65.9461 46.3339 65.6904 46.3106 65.6914 46.2939C65.6922 46.2791 65.9502 46.2739 66.3662 46.2939C66.782 46.3139 67.3559 46.363 67.9831 46.4545C68.6103 46.5462 69.1707 46.6626 69.5708 46.7616C69.9715 46.8606 70.2129 46.9387 70.2078 46.953Z" fill="#84DA49"/>
<path d="M80.5773 44.6808C79.4453 45.1681 77.9515 45.81 76.8195 46.2973C76.395 46.4799 75.9227 46.7142 75.8298 47.1144L76.1649 47.1932C76.7918 46.6859 77.5765 46.2819 78.2933 45.8721C78.9399 45.502 80.7818 44.7144 80.5773 44.6808Z" fill="#84DA49"/>
<path d="M74.4832 46.3345C73.5437 45.9999 72.4902 45.9601 71.4826 46.0791C70.475 46.1979 69.5012 46.4683 68.5335 46.7371C69.6686 46.8489 70.8157 46.9602 71.9511 46.8502C72.8901 46.7591 73.8186 46.5171 74.761 46.5761L74.4832 46.3345Z" fill="#FF725E"/>
<g opacity="0.3">
<path d="M74.4832 46.3345C73.5437 45.9999 72.4902 45.9601 71.4826 46.0791C70.475 46.1979 69.5012 46.4683 68.5335 46.7371C69.6686 46.8489 70.8157 46.9602 71.9511 46.8502C72.8901 46.7591 73.8186 46.5171 74.761 46.5761L74.4832 46.3345Z" fill="#84DA49"/>
</g>
<path d="M68.7678 43.424C69.567 43.8999 70.3665 44.3755 71.1657 44.8514C71.6153 45.1189 72.0658 45.3871 72.5473 45.6095C73.2936 45.954 74.1207 46.1927 74.761 46.6697C74.58 46.4391 74.3109 46.2719 74.0457 46.1124C72.3684 45.1035 70.6105 44.1938 68.7877 43.3923" fill="#84DA49"/>
<path d="M75.1276 47.0038C74.9428 45.9696 74.7456 44.9017 74.1704 43.981C73.3604 42.6847 71.8902 41.7981 70.8542 40.6271C70.6601 41.09 70.7047 41.6067 70.87 42.0775C71.0357 42.5486 71.3155 42.9828 71.593 43.4129C72.1503 44.276 72.7227 45.156 73.5749 45.8175C73.9362 46.0978 74.7369 46.5438 75.1276 47.0038Z" fill="#FF725E"/>
<g opacity="0.3">
<path d="M75.1276 47.0038C74.9428 45.9696 74.7456 44.9017 74.1704 43.981C73.3604 42.6847 71.8902 41.7981 70.8542 40.6271C70.6601 41.09 70.7047 41.6067 70.87 42.0775C71.0357 42.5486 71.3155 42.9828 71.593 43.4129C72.1503 44.276 72.7227 45.156 73.5749 45.8175C73.9362 46.0978 74.7369 46.5438 75.1276 47.0038Z" fill="#84DA49"/>
</g>
<path d="M74.1123 46.4044C73.8476 46.286 73.5711 46.1881 73.2856 46.1131C72.2977 45.853 71.4046 45.3292 70.7679 44.6294C70.0549 43.8458 69.6689 42.8472 69.694 41.8528C70.217 42.5123 70.9896 43.0232 71.8654 43.2887C71.8654 43.2887 72.4078 43.188 73.1592 44.024C73.9105 44.86 75.1273 46.8591 75.1273 46.8591L74.1123 46.4044Z" fill="#FF725E"/>
<path d="M79.1667 47.9996C76.9843 47.6586 77.0834 46.8912 74.3554 46.8912C71.6275 46.8912 70.8833 49.6619 70.7346 49.9176L69.5867 53.0292C69.5867 53.0292 71.6769 49.0224 73.3138 48.5962C74.9506 48.1699 74.7026 49.0226 78.2241 49.0226C81.7456 49.0226 83.085 48.4046 83.085 48.4046C83.085 48.4046 81.3491 48.3406 79.1667 47.9996Z" fill="#0F4332" fill-opacity="0.7"/>
<path d="M73.5762 47.0262C74.0426 46.7792 74.6798 46.7308 75.1276 47.0018C74.9427 46.7013 74.5708 46.5178 74.176 46.54C73.6422 46.5699 73.1197 46.7554 72.738 47.077C72.1884 47.5401 71.9634 48.2767 72.2084 48.9039C72.5578 49.7989 73.6724 50.2765 74.3539 51.0166C74.0268 50.4848 73.6996 49.9533 73.3724 49.4216C73.2142 49.1644 73.055 48.9055 72.9531 48.6278C72.8443 48.3313 72.8041 48.0063 72.917 47.7109C73.0271 47.4238 73.2767 47.1848 73.5762 47.0262Z" fill="#FF725E"/>
<path d="M74.9944 45.1495C74.8564 43.6335 74.7144 42.0996 74.1542 40.6569C74.4013 42.1258 74.1888 43.6266 74.3775 45.102C74.4018 45.2929 74.4338 45.4859 74.5224 45.6623C74.6109 45.8385 74.9419 46.7124 75.1488 46.7854V46.6985C75.0871 46.3469 75.0246 45.4797 74.9944 45.1495Z" fill="#84DA49"/>
<path d="M75.7753 40.3394C75.7881 40.8955 75.647 41.4539 75.3667 41.9555C75.1306 42.3777 74.7996 42.7574 74.5723 43.1831C74.3447 43.6088 74.2285 44.1126 74.4451 44.5425C74.6005 44.8507 74.9066 45.0832 75.1025 45.3736C75.4235 45.8495 75.4107 46.4778 75.0702 46.9438C75.0833 46.9394 75.1112 47.0216 75.1486 46.9944C76.1954 46.2285 76.7777 44.9728 76.9403 43.7923C77.1088 42.5695 76.683 41.292 75.7753 40.3394Z" fill="#FF725E"/>
<path d="M75.7752 40.3394C75.7614 40.3297 75.9521 40.4841 76.1825 40.7932C76.4163 41.1021 76.7124 41.5848 76.8888 42.2329C76.9761 42.5561 77.0314 42.9193 77.0309 43.3105C77.0276 43.7021 76.9628 44.1183 76.843 44.5447C76.6026 45.3897 76.1298 46.3196 75.2343 47.0049L75.202 47.0302C75.1962 47.034 75.1962 47.0375 75.1708 47.0498C75.1455 47.0615 75.1071 47.0575 75.0886 47.0467C75.0546 47.0276 75.0479 47.0124 75.0382 47.001L75.0277 46.9862C75.0264 46.9845 75.0252 46.9831 75.0264 46.9845L75.0341 46.9906C75.0382 46.9933 75.0408 46.9946 75.0472 46.997C75.0605 47.0025 75.081 47.0027 75.094 46.9977L75.0139 46.9136C75.3075 46.5088 75.3393 45.994 75.1465 45.5791C74.9594 45.1618 74.4837 44.8806 74.336 44.4373C74.1883 44.0026 74.3168 43.5718 74.4922 43.2231C74.6749 42.8702 74.9092 42.5768 75.0979 42.3004C75.4916 41.7544 75.6488 41.2458 75.7112 40.8935C75.7437 40.7169 75.755 40.5781 75.7614 40.4839C75.7673 40.3853 75.7755 40.3332 75.7752 40.3394C75.774 40.3453 75.7865 40.3926 75.788 40.4839C75.7903 40.5787 75.7873 40.7193 75.7622 40.899C75.7156 41.2563 75.5679 41.7812 75.1788 42.3403C74.9934 42.6214 74.7653 42.9167 74.593 43.2599C74.4271 43.5984 74.3137 44.0107 74.453 44.4061C74.5818 44.806 75.0515 45.0806 75.2676 45.5369C75.4767 45.9843 75.445 46.5341 75.1273 46.9741L75.0472 46.8901C75.062 46.885 75.084 46.8852 75.0989 46.891C75.1066 46.894 75.1104 46.8962 75.116 46.8998C75.1286 46.9086 75.1255 46.9077 75.1304 46.9121L75.1406 46.9244L75.1514 46.9396L75.1588 46.9488C75.1583 46.9506 75.1631 46.9482 75.157 46.9523C75.1475 46.9618 75.1421 46.9662 75.1383 46.973C75.1306 46.9834 75.1357 46.9858 75.1317 46.979C75.1304 46.9761 75.1286 46.9735 75.1265 46.9713L75.1058 46.9508L75.1078 46.9493L75.1155 46.9431L75.1468 46.9187C76.0123 46.2571 76.4818 45.349 76.724 44.5196C76.8448 44.1009 76.9126 43.6922 76.9206 43.3096C76.9257 42.9263 76.8771 42.5695 76.7969 42.2507C76.6351 41.6114 76.3566 41.1298 76.1385 40.8168C75.9122 40.5022 75.7819 40.3532 75.7752 40.3394Z" fill="#84DA49"/>
<path d="M74.2205 44.6808C74.1993 44.6859 74.1386 44.4916 73.9668 44.2082C73.7984 43.9242 73.5012 43.5599 73.0934 43.2207C72.6856 42.881 72.2639 42.6209 71.9595 42.4328C71.6539 42.2456 71.4639 42.129 71.4744 42.1149C71.4839 42.1022 71.691 42.1944 72.012 42.3655C72.3312 42.5373 72.7682 42.7903 73.1865 43.1386C73.6051 43.4866 73.901 43.8719 74.0521 44.173C74.2064 44.4742 74.2349 44.6786 74.2205 44.6808Z" fill="#84DA49"/>
<path d="M73.1361 46.1868C73.1367 46.2206 72.3812 46.2451 71.4601 46.3526C70.5383 46.4574 69.802 46.6047 69.7923 46.572C69.7825 46.5438 70.5106 46.3449 71.4424 46.2389C72.3735 46.1304 73.1372 46.1573 73.1361 46.1868Z" fill="#84DA49"/>
<path d="M61.1177 77.8451C61.1256 77.8412 61.1809 77.9078 61.2741 78.0324C61.3686 78.1562 61.4943 78.3417 61.6389 78.5758C61.929 79.0433 62.2766 79.716 62.5464 80.4926C62.8145 81.2699 62.9514 81.9968 63.006 82.5243C63.0336 82.7881 63.0467 83.0024 63.0461 83.1507C63.0472 83.2987 63.0436 83.3806 63.0344 83.381C63.0124 83.3819 62.9911 83.0554 62.9123 82.5336C62.8342 82.0117 62.6842 81.295 62.4187 80.5254C62.1514 79.7567 61.8212 79.0859 61.5547 78.6125C61.2884 78.1382 61.0988 77.8548 61.1177 77.8451Z" fill="#84DA49"/>
<path d="M61.3141 83.4905C61.5534 83.5513 61.4462 81.7554 61.2452 81.0329C61.0256 80.2429 61.4139 79.8121 61.9126 80.7309C62.4113 81.6496 62.9696 83.8685 62.9696 83.8685L61.3141 83.4905Z" fill="#AE7461"/>
<path d="M67.2069 81.2729C66.5347 81.7932 66.1292 82.5595 66.1146 83.337L67.1258 83.3403C67.3006 82.5032 67.6616 81.6951 68.1836 80.9724C67.8359 80.8875 67.4755 81.065 67.2069 81.2729Z" fill="#AE7461"/>
<path d="M60.9638 59.5752C59.9214 60.1778 58.8413 60.7324 57.7288 61.234C57.2915 61.4312 56.7314 61.6142 56.3364 61.3597C57.8312 60.3749 59.3792 59.3288 60.267 57.9211C59.1201 55.4751 57.1441 52.4787 53.7185 50.8307C53.7185 50.8307 53.6079 50.784 53.4095 50.7042C52.9812 51.2559 52.6746 51.8871 52.4106 52.5146C52.0069 53.4746 51.6667 54.4712 51.0077 55.3207C50.7889 55.0879 50.8723 54.7471 50.9668 54.4591C51.4232 53.0698 51.8794 51.6803 52.3359 50.291C51.2143 49.8763 49.5498 49.3109 47.872 48.9226C47.4081 49.8457 46.944 50.7689 46.4801 51.692C46.2313 51.481 46.2822 51.1327 46.3314 50.8353C46.4525 50.1025 46.4486 49.3551 46.3247 48.6228C45.4144 48.4855 44.5507 48.4342 43.8262 48.5268C41.4126 48.8353 39.978 49.7258 40.1162 51.0586C41.417 50.9563 42.7251 50.9273 44.0302 50.9735C42.8019 51.3136 41.5124 51.4381 40.2227 51.5241C40.3727 51.9538 40.6697 52.4217 41.1323 52.9249C41.6671 53.5061 42.1184 53.9355 42.5398 54.3192C44.6508 53.8845 46.8733 53.8504 48.9987 54.2308C48.3208 54.6028 47.4475 54.4954 46.6435 54.4789C45.5094 54.4556 44.372 54.6483 43.328 55.0296C44.311 55.9248 45.3181 56.9515 47.1114 59.6276C47.3871 60.039 47.657 60.4431 47.9235 60.838C48.385 61.1025 48.9475 61.2448 49.505 61.2835C50.2876 61.3379 51.071 61.2101 51.8385 61.0677C51.991 61.0393 52.2043 61.0402 52.2419 61.1705C52.2829 61.3115 52.0627 61.3933 51.8948 61.4105C51.359 61.4653 50.8147 61.4855 50.2945 61.6085C49.7743 61.7317 49.2669 61.9741 48.9864 62.3703C48.9861 62.3708 48.9856 62.3714 48.9853 62.3719C50.4957 64.4749 52.0064 66.1513 53.9922 66.9336C54.7878 66.7646 55.5471 66.4692 56.2161 66.0619C55.9736 66.536 55.5843 66.9527 55.1027 67.2638C55.7678 67.4011 56.4846 67.4479 57.2685 67.3879C62.1076 67.0172 62.0598 62.6744 61.1945 60.2082C61.1254 60.0111 61.0481 59.7985 60.9638 59.5752Z" fill="#0F4332" fill-opacity="0.7"/>
<path d="M64.0335 83.1902C64.0335 83.1902 64.0251 83.1563 64.0151 83.0895C64.0054 83.0177 63.9918 82.9192 63.9744 82.7927C63.9408 82.526 63.893 82.1424 63.8313 81.6509C63.7122 80.6534 63.541 79.2192 63.3295 77.4493C63.2256 76.5618 63.1117 75.5901 62.9895 74.5473C62.8636 73.5047 62.7853 72.3812 62.3347 71.2658C61.919 70.1473 61.3537 69.0081 60.6676 67.8714C59.9752 66.7375 59.1964 65.5911 58.3396 64.4486C56.6218 62.1644 54.8144 60.0869 53.1412 58.2193C52.3005 57.2876 51.5172 56.3916 50.7397 55.5855C49.9607 54.7805 49.2114 54.0448 48.3965 53.4933C47.6121 52.9107 46.902 52.3832 46.2776 51.9194C45.6525 51.4583 45.1046 51.0709 44.6464 50.7657C44.1894 50.4591 43.8221 50.2353 43.5745 50.0818C43.4532 50.0089 43.3587 49.952 43.2898 49.9106C43.2261 49.8714 43.1954 49.849 43.1954 49.849C43.1954 49.849 43.2312 49.8648 43.2975 49.9009C43.3682 49.9401 43.4652 49.9938 43.5899 50.0628C43.8428 50.2105 44.2155 50.4287 44.6781 50.7305C45.142 51.0308 45.6957 51.4141 46.326 51.8708C46.954 52.3306 47.6682 52.8535 48.4575 53.4315C49.2805 53.9821 50.0421 54.7222 50.8249 55.525C51.6086 56.3313 52.3952 57.2252 53.2385 58.1551C54.9179 60.02 56.7303 62.0979 58.4517 64.3868C59.3103 65.5315 60.0904 66.6816 60.7836 67.8201C61.4704 68.9617 62.0365 70.1075 62.452 71.235C62.5444 71.5201 62.6355 71.8015 62.7256 72.0793C62.7847 72.3636 62.8431 72.6443 62.9007 72.9208C62.934 73.0588 62.9514 73.1967 62.9642 73.3338C62.9796 73.4706 62.9949 73.6066 63.01 73.7414C63.0402 74.0112 63.0699 74.2765 63.0994 74.5374C63.2159 75.5809 63.3241 76.553 63.4232 77.4412C63.6167 79.2128 63.7737 80.6483 63.883 81.6467C63.9339 82.1393 63.9736 82.5236 64.0013 82.7907C64.013 82.9176 64.022 83.0164 64.0287 83.0886C64.0343 83.1555 64.0335 83.1902 64.0335 83.1902Z" fill="#84DA49"/>
<path d="M48.3449 58.5754C48.3431 58.5613 48.6444 58.5162 49.1369 58.4834C49.6292 58.4504 50.3135 58.4368 51.0661 58.4814C51.819 58.527 52.4946 58.622 52.9769 58.7133C53.4595 58.8044 53.7506 58.8849 53.7465 58.8985C53.7416 58.9155 53.4431 58.8629 52.959 58.7927C52.4749 58.7223 51.8034 58.6407 51.0569 58.5956C50.3104 58.5514 49.6323 58.552 49.1415 58.5641C48.651 58.5762 48.3469 58.5927 48.3449 58.5754Z" fill="#84DA49"/>
<path d="M53.9661 54.4038C54.0063 54.4196 53.525 55.1394 53.3133 56.129C53.0898 57.117 53.2322 57.9378 53.1879 57.94C53.1725 57.942 53.1167 57.7407 53.089 57.4076C53.0606 57.0752 53.0727 56.6099 53.1825 56.1077C53.2936 55.6058 53.4802 55.1689 53.6479 54.8684C53.8151 54.567 53.9525 54.3969 53.9661 54.4038Z" fill="#84DA49"/>
<path d="M54.9512 53.1535C54.9803 53.1728 54.8982 53.307 54.7673 53.4535C54.6365 53.6001 54.507 53.703 54.4778 53.6839C54.4486 53.6645 54.5308 53.5303 54.6616 53.3838C54.7924 53.2373 54.922 53.1341 54.9512 53.1535Z" fill="#84DA49"/>
<path d="M57.3517 55.9129C57.3698 55.925 57.1643 56.1531 56.8847 56.5491C56.6046 56.9443 56.266 57.5171 56.0151 58.189C55.7663 58.862 55.6559 59.4974 55.6175 59.9589C55.5781 60.4207 55.5917 60.7091 55.5689 60.71C55.5597 60.7104 55.5481 60.6389 55.5356 60.5085C55.521 60.3782 55.5156 60.1886 55.5236 59.9545C55.5382 59.4868 55.6354 58.838 55.8884 58.1543C56.1436 57.4714 56.5017 56.8943 56.8054 56.506C56.9566 56.3113 57.089 56.1595 57.1888 56.0605C57.2869 55.9606 57.3445 55.9081 57.3517 55.9129Z" fill="#84DA49"/>
<path d="M57.3729 62.7205C57.3706 62.7377 57.0417 62.7159 56.5102 62.6913C55.9788 62.6664 55.2446 62.644 54.4335 62.6556C53.6223 62.6682 52.8891 62.7124 52.3592 62.7531C51.8293 62.7936 51.5013 62.825 51.4982 62.8081C51.497 62.8004 51.5771 62.7828 51.7238 62.7582C51.8705 62.7329 52.0837 62.7034 52.3487 62.6728C52.8781 62.6112 53.6149 62.5538 54.4312 62.5412C55.2471 62.5294 55.9857 62.565 56.5174 62.6108C56.7834 62.6334 56.9979 62.6565 57.1454 62.6776C57.2931 62.6977 57.374 62.7126 57.3729 62.7205Z" fill="#84DA49"/>
<path d="M57.9929 63.7937C57.9917 63.8276 57.2728 63.8238 56.3945 63.9033C55.5154 63.9796 54.8127 64.1094 54.8034 64.0764C54.794 64.0483 55.4905 63.8667 56.3807 63.7893C57.2703 63.709 57.9955 63.7645 57.9929 63.7937Z" fill="#84DA49"/>
<path d="M59.6697 62.0755C59.7028 62.0958 59.3298 62.551 59.0167 63.1755C58.6982 63.7986 58.5651 64.3433 58.5254 64.3363C58.4924 64.3334 58.5689 63.7678 58.8946 63.1298C59.2153 62.4907 59.6449 62.0566 59.6697 62.0755Z" fill="#84DA49"/>
<path d="M52.0041 56.7335C51.9985 56.7504 51.6782 56.6805 51.158 56.5841C50.6378 56.4875 49.9151 56.3716 49.109 56.292C48.3026 56.2132 47.5679 56.1861 47.0359 56.1793C46.5037 56.1723 46.1737 56.1782 46.1724 56.1606C46.1719 56.1527 46.2538 56.1419 46.4028 56.1294C46.5518 56.116 46.7679 56.105 47.0354 56.0981C47.5702 56.0841 48.3116 56.0986 49.1244 56.178C49.9367 56.2583 50.6627 56.3879 51.18 56.5054C51.4389 56.5639 51.6465 56.6165 51.788 56.6585C51.9296 56.6996 52.0067 56.726 52.0041 56.7335Z" fill="#84DA49"/>
<path d="M49.9487 50.7203C49.9682 50.7242 49.9218 50.9376 49.8609 51.2828C49.7997 51.628 49.7311 52.1067 49.7017 52.6382C49.6732 53.17 49.6896 53.652 49.7132 54.0007C49.7365 54.3494 49.7595 54.5654 49.7395 54.5678C49.7232 54.57 49.6666 54.3573 49.6192 54.0075C49.5714 53.6579 49.5396 53.1704 49.5685 52.6327C49.5982 52.0953 49.6827 51.6124 49.7682 51.2683C49.8535 50.924 49.9326 50.717 49.9487 50.7203Z" fill="#84DA49"/>
<path d="M48.4352 51.1374C48.4744 51.1464 48.3405 51.588 48.342 52.1428C48.3379 52.6979 48.4695 53.1398 48.4304 53.1486C48.3996 53.1594 48.2051 52.7174 48.2087 52.1426C48.2076 51.5677 48.4042 51.1264 48.4352 51.1374Z" fill="#84DA49"/>
<path d="M46.4817 52.5846C46.4817 52.6011 46.261 52.6143 45.9049 52.6327C45.5488 52.6512 45.0578 52.6774 44.5164 52.7181C43.9749 52.7592 43.486 52.807 43.1314 52.8422C42.7771 52.8774 42.5569 52.8974 42.5536 52.8811C42.5505 52.8662 42.7651 52.8178 43.1173 52.7621C43.4696 52.7062 43.9598 52.6453 44.5043 52.6039C45.0489 52.563 45.544 52.5494 45.9021 52.5518C46.2605 52.554 46.4817 52.5692 46.4817 52.5846Z" fill="#84DA49"/>
<path d="M45.5485 51.8461C45.5462 51.8778 45.2572 51.8884 44.9029 51.8699C44.5486 51.8514 44.2632 51.8109 44.2652 51.7793C44.2675 51.7478 44.5565 51.737 44.9108 51.7555C45.2651 51.774 45.5506 51.8147 45.5485 51.8461Z" fill="#84DA49"/>
<path d="M72.2525 55.6484C73.4142 54.8949 75.5608 53.8136 78.0673 52.8927C78.5201 52.7262 79.0319 52.9807 79.0877 53.4012C79.1939 54.2022 79.3281 54.7167 79.4827 55.7279C79.6678 54.5253 79.7522 54.1934 79.8795 52.9774C79.9258 52.5348 80.2722 52.1551 80.7637 52.0171C84.9288 50.8481 89.4434 50.4721 91.966 52.7211C92.1234 52.8615 89.6492 53.7474 86.6612 55.4256C86.4536 55.5422 86.2016 55.5879 85.9574 55.5521C82.8688 55.0978 82.7331 55.4232 82.2493 55.5765C81.8369 55.7072 83.8329 55.7004 85.3269 55.9617C83.9 56.8813 82.1722 58.3236 80.81 59.6912C80.3354 60.1677 79.9066 60.6273 79.5134 61.0693C79.1425 61.2246 78.7323 61.3211 78.323 61.3713C77.5954 61.4604 76.8559 61.4257 76.1214 61.4461C76.0121 61.4492 75.8782 61.4683 75.8426 61.5572C75.7914 61.685 75.9926 61.7719 76.1473 61.7966C76.6139 61.8709 77.0809 61.9453 77.5476 62.0197C78.0227 62.0953 78.2495 62.5659 77.9782 62.9095C75.5789 65.9466 74.6397 67.7286 70.9103 67.5249C70.9103 67.5249 68.4606 67.6008 67.6158 64.989C66.771 62.3771 68.8845 57.8328 72.2525 55.6484Z" fill="#0F4332" fill-opacity="0.7"/>
<path d="M64.1285 84.3254C64.1285 84.3254 64.1283 84.2867 64.1349 84.2121C64.1431 84.1329 64.1544 84.0227 64.169 83.8806C64.201 83.5895 64.2527 83.1605 64.3272 82.6088C64.4759 81.5052 64.713 79.9102 65.0827 77.9492C65.4626 75.9903 65.9487 73.6581 66.7459 71.119C67.155 69.8534 67.6452 68.5338 68.3259 67.2255C68.9918 65.911 69.8783 64.631 70.8616 63.3726C71.3564 62.7447 71.8495 62.1265 72.3733 61.5385C72.8976 60.9517 73.4444 60.3934 74.014 59.8707C75.1483 58.821 76.3487 57.8962 77.5547 57.0863C78.7646 56.2798 79.9734 55.5809 81.1605 55.0051C82.3542 54.4382 83.5397 54.0356 84.6387 53.725C86.847 53.1202 88.704 52.8654 89.9797 52.6971C90.6192 52.6151 91.1171 52.5616 91.455 52.5271C91.6199 52.5112 91.7476 52.4989 91.8398 52.4899C91.9266 52.4822 91.9714 52.4811 91.9714 52.4811C91.9714 52.4811 91.9276 52.4899 91.8416 52.5013C91.7499 52.513 91.6227 52.529 91.4588 52.5497C91.1222 52.5915 90.6256 52.652 89.9881 52.7409C88.7161 52.9226 86.8644 53.1893 84.6687 53.8017C83.5761 54.1159 82.3985 54.5209 81.215 55.0879C80.0379 55.6636 78.8334 56.3641 77.6313 57.1693C76.4319 57.9782 75.2384 58.9009 74.1105 59.9468C73.544 60.4675 73.0005 61.0237 72.4793 61.6076C71.9596 62.1917 71.4668 62.8096 70.973 63.4362C69.992 64.6915 69.1098 65.9638 68.446 67.2708C67.7673 68.5714 67.2761 69.8851 66.8649 71.1468C66.0631 73.6779 65.5675 76.0068 65.1763 77.9621C64.7949 79.9201 64.5438 81.5125 64.3794 82.614C64.3006 83.1612 64.2391 83.588 64.1964 83.883C64.1762 84.0245 64.1605 84.1342 64.1493 84.2132C64.1375 84.2876 64.1285 84.3254 64.1285 84.3254Z" fill="#84DA49"/>
<path d="M74.1655 64.6335C74.1666 64.65 73.9185 64.6734 73.5186 64.7101C73.1187 64.7468 72.5673 64.8003 71.9606 64.8753C71.3539 64.9508 70.8073 65.0337 70.4118 65.0958C70.0163 65.1576 69.7708 65.1956 69.7662 65.1796C69.7621 65.1648 69.9999 65.0991 70.3921 65.0166C70.784 64.9341 71.3314 64.8379 71.9414 64.762C72.5514 64.6866 73.1077 64.6454 73.5109 64.6294C73.9147 64.6131 74.1648 64.6184 74.1655 64.6335Z" fill="#84DA49"/>
<path d="M75.0528 63.6926C75.0521 63.7097 74.784 63.713 74.3524 63.7269C73.9208 63.7405 73.3254 63.7696 72.6715 63.8345C72.0174 63.9 71.4302 63.9889 71.0063 64.0606C70.5823 64.1321 70.3204 64.1816 70.3153 64.1651C70.3107 64.151 70.5644 64.0738 70.9855 63.9816C71.4064 63.8892 71.9965 63.7869 72.6559 63.7207C73.3154 63.6554 73.917 63.6389 74.3511 63.6459C74.7858 63.6527 75.0534 63.678 75.0528 63.6926Z" fill="#84DA49"/>
<path d="M69.5901 59.2431C69.6262 59.2369 69.8927 60.2731 70.1853 61.5572C70.4779 62.8416 70.6857 63.8875 70.6497 63.8937C70.6136 63.8998 70.3471 62.8638 70.0544 61.5792C69.7621 60.2951 69.554 59.249 69.5901 59.2431Z" fill="#84DA49"/>
<path d="M72.0177 56.4888C72.039 56.4925 71.9742 56.7902 71.9084 57.2742C71.8418 57.758 71.7871 58.4303 71.818 59.1724C71.8508 59.9146 71.9634 60.5817 72.0715 61.06C72.179 61.5385 72.2689 61.8311 72.2481 61.8361C72.2392 61.8383 72.2077 61.7675 72.158 61.637C72.1071 61.507 72.0451 61.3156 71.9793 61.0767C71.847 60.5995 71.7179 59.9267 71.6849 59.1765C71.6534 58.4266 71.7241 57.7474 71.815 57.2632C71.86 57.0208 71.9053 56.8261 71.945 56.6932C71.9832 56.5599 72.0088 56.4873 72.0177 56.4888Z" fill="#84DA49"/>
<path d="M79.232 59.799C79.2318 59.8161 78.9077 59.8252 78.3852 59.8483C77.8627 59.8709 77.142 59.9127 76.35 59.9917C75.5576 60.0713 74.8449 60.1728 74.3304 60.2537C73.8158 60.3345 73.4979 60.3895 73.4933 60.373C73.4912 60.3653 73.568 60.3419 73.7088 60.3065C73.8496 60.2704 74.0554 60.2251 74.3114 60.1745C74.8232 60.0729 75.5377 59.958 76.3346 59.878C77.1313 59.7985 77.8573 59.7695 78.3826 59.7675C78.6453 59.7664 78.8577 59.7699 79.0044 59.7772C79.1511 59.7836 79.232 59.7911 79.232 59.799Z" fill="#84DA49"/>
<path d="M80.7465 58.3568C80.7414 58.3747 80.4552 58.3214 79.9893 58.2638C79.5236 58.2057 78.8754 58.1533 78.1584 58.1652C77.4411 58.1784 76.7959 58.2537 76.3336 58.328C75.8708 58.4019 75.5876 58.4651 75.5815 58.4475C75.5769 58.4347 75.8516 58.3436 76.3141 58.2486C76.776 58.1531 77.4285 58.064 78.1556 58.0504C78.8823 58.0383 79.5387 58.1045 80.0047 58.1835C80.4716 58.2627 80.7506 58.3441 80.7465 58.3568Z" fill="#84DA49"/>
<path d="M80.6249 57.2353C80.6201 57.2668 80.2345 57.2481 79.7643 57.1935C79.2937 57.1392 78.9164 57.0697 78.9213 57.0382C78.9261 57.007 79.3114 57.0257 79.7819 57.08C80.2525 57.1346 80.6298 57.2041 80.6249 57.2353Z" fill="#84DA49"/>
<path d="M76.3479 54.0576C76.3843 54.062 76.254 55.0672 76.0566 56.3025C75.8592 57.5383 75.6695 58.5362 75.6332 58.532C75.5968 58.5276 75.7271 57.5226 75.9245 56.2869C76.1219 55.0516 76.3113 54.0532 76.3479 54.0576Z" fill="#84DA49"/>
<path d="M73.6026 56.9817C73.6392 56.9788 73.7416 57.6822 73.8312 58.5523C73.9208 59.4226 73.9638 60.1303 73.9272 60.1332C73.8906 60.1361 73.7882 59.4329 73.6986 58.5624C73.609 57.6923 73.566 56.9843 73.6026 56.9817Z" fill="#84DA49"/>
<path d="M83.2482 52.0022C83.2625 52.0165 83.1038 52.1333 82.9123 52.3654C82.7175 52.5956 82.5106 52.9482 82.3353 53.359C82.1599 53.7699 82.0122 54.1512 81.8663 54.4145C81.7242 54.6794 81.6005 54.8268 81.5862 54.8193C81.5688 54.8107 81.6617 54.6515 81.7792 54.3831C81.9008 54.116 82.0327 53.7354 82.2101 53.3187C82.3877 52.9022 82.6158 52.5412 82.8373 52.3162C83.0559 52.0885 83.24 51.9919 83.2482 52.0022Z" fill="#84DA49"/>
<path d="M83.8661 52.9719C83.8997 52.9851 83.7763 53.2753 83.5907 53.6198C83.4051 53.9643 83.2277 54.233 83.1944 54.2198C83.1611 54.2066 83.2842 53.9164 83.4698 53.5719C83.6552 53.2271 83.8329 52.9585 83.8661 52.9719Z" fill="#84DA49"/>
<path d="M87.2105 53.9199C87.2069 53.9513 86.6786 53.9311 86.0306 53.8745C85.3824 53.818 84.8602 53.7467 84.864 53.7153C84.8679 53.6838 85.396 53.704 86.0442 53.7606C86.6919 53.8171 87.2141 53.8884 87.2105 53.9199Z" fill="#84DA49"/>
<path d="M56.5299 69.6552L55.53 71.0377L55.7038 68.9829C55.7038 68.9829 53.8777 67.1894 48.4869 67.6004C48.4869 67.6004 46.6608 67.563 45.6174 68.0487C44.5739 68.5345 45.09 69.1322 45.09 69.1322C52.1956 71.6321 57.7835 74.6685 61.0949 78.51C61.0949 78.51 62.2213 77.4456 62.8298 76.1007C63.4386 74.7554 62.1819 70.9629 56.5299 69.6552Z" fill="#0F4332" fill-opacity="0.7"/>
<path d="M53.3384 69.1928C53.3545 69.1899 53.4211 69.3791 53.4833 69.6937C53.5457 70.0079 53.5964 70.4488 53.5849 70.9365C53.5723 71.4242 53.5004 71.8629 53.4223 72.1747C53.3448 72.4868 53.2692 72.6734 53.2531 72.6699C53.2119 72.6622 53.4318 71.8975 53.4515 70.9341C53.4789 69.9711 53.2969 69.1992 53.3384 69.1928Z" fill="#84DA49"/>
<path d="M51.2584 69.1969C51.2873 69.1835 51.6242 69.7541 51.7998 70.5224C51.9803 71.29 51.9232 71.9277 51.8907 71.9249C51.85 71.9251 51.8464 71.2977 51.6692 70.5446C51.4972 69.7911 51.2207 69.2101 51.2584 69.1969Z" fill="#84DA49"/>
<path d="M54.6729 71.3307C54.7077 71.3309 54.7205 71.7351 54.5897 72.2173C54.4612 72.7002 54.2433 73.0584 54.2118 73.0454C54.176 73.0324 54.3347 72.6624 54.4596 72.1913C54.5879 71.7212 54.6342 71.3289 54.6729 71.3307Z" fill="#84DA49"/>
<path d="M58.625 71.4825C58.6401 71.49 58.5433 71.6664 58.3593 71.939C58.1754 72.2113 57.9008 72.5779 57.5646 72.9624C57.2282 73.347 56.8949 73.6759 56.6418 73.9034C56.3886 74.1311 56.2181 74.2602 56.2055 74.2496C56.1914 74.2382 56.3376 74.0895 56.5713 73.8492C56.8053 73.609 57.1241 73.2748 57.4579 72.8933C57.7912 72.5119 58.0759 72.1555 58.2791 71.8956C58.4829 71.6358 58.6081 71.4741 58.625 71.4825Z" fill="#84DA49"/>
<path d="M60.4262 72.8091C60.438 72.8203 60.278 72.965 60.001 73.1822C59.7242 73.3993 59.3282 73.6871 58.872 73.9841C58.4153 74.2809 57.9855 74.5299 57.6668 74.6998C57.3483 74.8698 57.1427 74.9627 57.1333 74.9499C57.123 74.936 57.3104 74.819 57.6146 74.6324C57.9187 74.4459 58.3375 74.1878 58.7916 73.8928C59.2453 73.5976 59.6482 73.3215 59.9398 73.1208C60.2314 72.92 60.4134 72.7968 60.4262 72.8091Z" fill="#84DA49"/>
<path d="M60.823 74.56C60.8415 74.5851 60.2941 74.8995 59.5505 75.173C58.8075 75.4488 58.1658 75.574 58.1573 75.5452C58.1466 75.5131 58.7643 75.3402 59.4977 75.0676C60.2319 74.7976 60.8031 74.531 60.823 74.56Z" fill="#84DA49"/>
<path d="M61.2506 35.6987C61.2823 35.7147 60.543 36.8515 59.5994 38.2375C58.6555 39.6239 57.865 40.7345 57.833 40.7186C57.8012 40.7028 58.5403 39.5663 59.4842 38.1796C60.428 36.7936 61.2188 35.6828 61.2506 35.6987Z" fill="#84DA49"/>
<path d="M62.4663 33.8312C62.4937 33.8524 62.3196 34.057 62.0774 34.2882C61.8353 34.5194 61.6169 34.6897 61.5895 34.6686C61.5621 34.6474 61.7362 34.4428 61.9784 34.2116C62.2205 33.9804 62.4389 33.8101 62.4663 33.8312Z" fill="#84DA49"/>
<path d="M62.3595 30.8938C62.3664 30.8991 62.285 30.9926 62.132 31.1573C61.964 31.3388 61.7464 31.5736 61.4853 31.8556C60.9423 32.447 60.2109 33.2766 59.4555 34.2246C58.701 35.1737 58.0664 36.0603 57.622 36.7095C57.4108 37.021 57.2349 37.2802 57.0992 37.4806C56.9761 37.663 56.9042 37.7622 56.896 37.7584C56.8878 37.7547 56.9444 37.6484 57.0537 37.4595C57.162 37.27 57.3279 36.9997 57.5403 36.6692C57.9648 36.0081 58.5887 35.1118 59.3456 34.1599C60.1034 33.2088 60.8491 32.3843 61.4121 31.8046C61.6934 31.5146 61.9264 31.2838 62.0925 31.1283C62.2576 30.9723 62.3524 30.8885 62.3595 30.8938Z" fill="#84DA49"/>
<path d="M54.8619 33.5979C54.8596 33.6056 54.7331 33.586 54.5063 33.544C54.2546 33.4975 53.9326 33.4384 53.5465 33.3673C52.7358 33.2206 51.6117 33.0358 50.3611 32.8811C49.1098 32.7273 47.9706 32.6334 47.1445 32.5784C46.7508 32.5533 46.4223 32.5324 46.1658 32.5161C45.9346 32.5016 45.8066 32.4897 45.8069 32.4818C45.8071 32.4739 45.9357 32.4706 46.1678 32.4715C46.4 32.4717 46.7359 32.48 47.1506 32.4974C47.9801 32.5317 49.1246 32.6134 50.3801 32.7676C51.6347 32.9227 52.7601 33.1209 53.5673 33.2881C53.971 33.3715 54.2961 33.4445 54.5188 33.5006C54.7418 33.5561 54.8642 33.5904 54.8619 33.5979Z" fill="#84DA49"/>
<path d="M58.7031 27.2623C58.7105 27.2669 58.6527 27.3498 58.5413 27.4953C58.4161 27.6609 58.2597 27.8675 58.0741 28.1128C57.6837 28.636 57.1674 29.3712 56.6595 30.2125C56.1528 31.0546 55.7517 31.8414 55.4798 32.4173C55.3539 32.689 55.2476 32.9178 55.1626 33.1015C55.0884 33.2634 55.0431 33.3519 55.0344 33.3495C55.0257 33.3468 55.0543 33.2535 55.1135 33.0868C55.1718 32.9198 55.2663 32.6809 55.3917 32.3881C55.6421 31.8026 56.0315 31.0065 56.5409 30.1599C57.0514 29.3142 57.5834 28.5816 57.9953 28.0681C58.2011 27.8112 58.3736 27.607 58.4988 27.4697C58.6232 27.3316 58.6957 27.2577 58.7031 27.2623Z" fill="#84DA49"/>
<path d="M56.9805 24.6122C56.9877 24.617 56.9234 24.7035 56.8008 24.855C56.6769 25.006 56.502 25.2271 56.2921 25.5029C55.8715 26.0545 55.3288 26.8388 54.8316 27.7491C54.3358 28.6606 53.982 29.521 53.7592 30.152C53.6474 30.4675 53.5621 30.7244 53.5068 30.9028C53.45 31.081 53.4144 31.1789 53.4055 31.1772C53.3965 31.1754 53.4152 31.0744 53.4564 30.8925C53.4963 30.7103 53.5678 30.4494 53.6686 30.1295C53.8691 29.4898 54.2113 28.6186 54.7108 27.7007C55.2115 26.7838 55.7712 26.0004 56.2138 25.4578C56.435 25.1864 56.6221 24.9716 56.7591 24.8286C56.895 24.6843 56.9733 24.6073 56.9805 24.6122Z" fill="#84DA49"/>
<path d="M54.6343 25.7848C54.6678 25.8039 54.3583 26.2182 54.1082 26.7798C53.8532 27.3402 53.7575 27.8253 53.7178 27.8202C53.6842 27.8187 53.7224 27.3142 53.9838 26.7387C54.241 26.1616 54.6081 25.7665 54.6343 25.7848Z" fill="#84DA49"/>
<path d="M45.1415 25.7487C45.1421 25.7407 45.2311 25.7385 45.3922 25.7412C45.5532 25.7429 45.7859 25.7546 46.0729 25.777C46.6466 25.8213 47.4366 25.9216 48.2901 26.1057C49.1438 26.2912 49.8947 26.5248 50.4241 26.7195C50.6891 26.8168 50.9003 26.9012 51.0431 26.9653C51.1865 27.0286 51.2635 27.0669 51.2597 27.0739C51.2507 27.0902 50.9248 26.969 50.389 26.7948C49.8535 26.6203 49.1042 26.401 48.2573 26.2168C47.4105 26.034 46.6297 25.9218 46.0621 25.8576C45.4946 25.7927 45.1403 25.7667 45.1415 25.7487Z" fill="#84DA49"/>
<path d="M46.8741 24.9144C46.8751 24.9001 47.0973 24.8962 47.4542 24.9287C47.8108 24.9609 48.301 25.0365 48.8253 25.1747C49.3496 25.314 49.8043 25.4887 50.1202 25.6343C50.4366 25.7799 50.6176 25.8906 50.6091 25.9029C50.5892 25.9348 49.8219 25.5549 48.7862 25.284C47.7529 25.0073 46.8697 24.9503 46.8741 24.9144Z" fill="#84DA49"/>
<path d="M50.9909 20.7158C51.0096 20.7213 50.9381 20.9371 50.8288 21.2865C50.7193 21.6356 50.5769 22.1196 50.4499 22.6599C50.3237 23.2005 50.2372 23.6941 50.1809 24.0525C50.1243 24.4109 50.0928 24.6338 50.0734 24.6324C50.0562 24.6316 50.0544 24.4063 50.0872 24.0437C50.1197 23.6814 50.1921 23.1818 50.3194 22.637C50.4471 22.0928 50.6053 21.6081 50.7387 21.2631C50.8716 20.918 50.9747 20.7109 50.9909 20.7158Z" fill="#84DA49"/>
<path d="M48.3164 29.7767C48.319 29.7622 48.6144 29.7857 49.0867 29.8554C49.5588 29.925 50.207 30.0453 50.9097 30.2204C51.6124 30.3962 52.2348 30.5929 52.6769 30.7515C53.1192 30.9101 53.3832 31.0261 53.3765 31.0395C53.3688 31.0551 53.0919 30.9656 52.6428 30.827C52.1941 30.6884 51.5707 30.5049 50.8723 30.3302C50.174 30.1562 49.5337 30.0242 49.068 29.9346C48.6029 29.8453 48.3134 29.7934 48.3164 29.7767Z" fill="#84DA49"/>
<path d="M48.3723 37.1264C48.372 37.1185 48.4864 37.109 48.694 37.0982C48.9014 37.0866 49.2022 37.0802 49.5739 37.0813C50.3171 37.0828 51.3457 37.1319 52.469 37.276C53.5924 37.4219 54.5923 37.635 55.3035 37.8212C55.659 37.914 55.9445 37.9961 56.1388 38.0596C56.3336 38.1221 56.4396 38.1602 56.4365 38.1677C56.4334 38.1751 56.3218 38.1514 56.1227 38.1021C55.9237 38.0517 55.6352 37.9815 55.2779 37.8993C54.5631 37.7336 53.5662 37.5345 52.4496 37.3895C51.3332 37.2461 50.312 37.1847 49.5724 37.1625C49.2025 37.151 48.9027 37.1451 48.6953 37.1429C48.4875 37.1398 48.3725 37.1343 48.3723 37.1264Z" fill="#84DA49"/>
<path d="M51.2021 39.922C51.2021 39.9141 51.294 39.9079 51.4599 39.9035C51.626 39.8985 51.8664 39.8985 52.1631 39.9049C52.7568 39.917 53.577 39.9627 54.4761 40.0663C55.3751 40.1708 56.1805 40.313 56.7568 40.4364C57.045 40.4978 57.2767 40.5523 57.4354 40.595C57.5942 40.637 57.6807 40.6639 57.6784 40.6716C57.6733 40.6883 57.3156 40.6179 56.736 40.5154C56.1565 40.4126 55.3529 40.2837 54.4584 40.1799C53.5642 40.0769 52.7496 40.0184 52.159 39.9858C51.5684 39.9528 51.2018 39.9394 51.2021 39.922Z" fill="#84DA49"/>
<path d="M52.1818 41.2761C52.182 41.2613 52.3917 41.2473 52.7314 41.2565C53.0706 41.2655 53.5396 41.3027 54.049 41.3874C54.5587 41.4725 55.0098 41.5885 55.3285 41.689C55.6475 41.7893 55.8359 41.8699 55.8298 41.8837C55.8154 41.9165 55.0318 41.6653 54.0239 41.5C53.0171 41.3298 52.1807 41.3111 52.1818 41.2761Z" fill="#84DA49"/>
<path d="M50.8731 43.8184C50.8744 43.8105 51.0188 43.8226 51.2789 43.851C51.5395 43.8778 51.9143 43.9302 52.3748 44.0072C53.2959 44.1601 54.5564 44.4366 55.8997 44.8674C57.2424 45.3006 58.4046 45.8035 59.2159 46.2078C59.6222 46.4096 59.9447 46.5816 60.1616 46.7083C60.3794 46.8337 60.4974 46.9061 60.4926 46.9129C60.4874 46.9195 60.3602 46.8599 60.1342 46.7464C59.9094 46.6316 59.5802 46.4705 59.1698 46.2787C58.3496 45.8939 57.1879 45.4055 55.8528 44.9747C54.5173 44.5462 53.268 44.2591 52.3554 44.0864C51.8992 43.9995 51.528 43.9352 51.2707 43.895C51.0134 43.853 50.8718 43.8261 50.8731 43.8184Z" fill="#84DA49"/>
<path d="M82.0539 83.2408H46.7023V87.918H82.0539V83.2408Z" fill="#FF725E"/>
<path d="M49.8076 87.9181L53.5677 104.435H75.6229L78.9486 87.9181H49.8076Z" fill="#FF725E"/>
<path opacity="0.3" d="M49.8076 87.9181L50.114 89.264H78.6775L78.9486 87.9181C78.9486 87.9181 50.1663 87.9181 49.8076 87.9181Z" fill="#0F4332"/>
<path d="M64.4257 22.4764C62.3964 20.3989 60.3668 18.3212 58.3375 16.2438C60.8783 18.1316 63.0705 20.3653 64.8074 22.8359" fill="#84DA49"/>
<path d="M67.2438 16.9469C66.6893 18.2266 66.612 19.6555 67.0264 20.974L67.4012 23.4833C68.0781 21.3517 68.0228 19.0525 67.2438 16.9469Z" fill="#FF725E"/>
<g opacity="0.3">
<path d="M67.2438 16.9469C66.6893 18.2266 66.612 19.6555 67.0264 20.974L67.4012 23.4833C68.0781 21.3517 68.0228 19.0525 67.2438 16.9469Z" fill="#84DA49"/>
</g>
<path d="M59.3119 17.871C59.8218 18.6746 60.5463 19.3214 61.2677 19.9949C61.963 20.6441 62.8247 21.1422 63.5879 21.7324C65.0084 22.8311 66.0631 24.2281 67.1007 25.6075L66.6911 25.7945C66.4138 25.0379 65.6161 24.515 64.8108 24.1273C64.0057 23.7397 63.1299 23.4231 62.4814 22.8588C61.9733 22.4164 61.6402 21.8512 61.3153 21.2959C60.6477 20.1541 59.9798 19.0126 59.3119 17.871Z" fill="#FF725E"/>
<g opacity="0.3">
<path d="M59.3119 17.871C59.8218 18.6746 60.5463 19.3214 61.2677 19.9949C61.963 20.6441 62.8247 21.1422 63.5879 21.7324C65.0084 22.8311 66.0631 24.2281 67.1007 25.6075L66.6911 25.7945C66.4138 25.0379 65.6161 24.515 64.8108 24.1273C64.0057 23.7397 63.1299 23.4231 62.4814 22.8588C61.9733 22.4164 61.6402 21.8512 61.3153 21.2959C60.6477 20.1541 59.9798 19.0126 59.3119 17.871Z" fill="#84DA49"/>
</g>
<path d="M67.2683 25.5518C67.2581 24.8541 66.6572 24.2861 66.1847 23.7189C65.3678 22.7384 64.8624 21.5869 64.5455 20.4119C64.2286 19.2371 64.0926 18.0326 63.9572 16.8323C64.8663 17.9076 65.7751 18.9832 66.6841 20.0588C67.1296 20.5857 67.5899 21.1445 67.6749 21.7917C67.7557 22.4062 67.4862 23.0094 67.3597 23.6182C67.2332 24.2269 67.3001 24.9476 67.8702 25.3249" fill="#FF725E"/>
<path opacity="0.3" d="M64.4797 20.1562C64.4797 20.1562 65.8816 21.0556 66.3639 21.8007C66.8465 22.5459 67.5238 25.3856 67.5238 25.3856L67.2681 25.5518C67.2681 25.5518 67.1844 24.9817 66.8721 24.5312C66.5597 24.0806 65.9072 23.5071 65.7989 23.4402C65.2695 23.1126 64.7352 21.1792 64.6328 20.7188C64.5307 20.2585 64.4797 20.1562 64.4797 20.1562Z" fill="#84DA49"/>
<path d="M66.2321 23.2877C66.0503 22.8336 65.8967 22.3705 65.7234 21.914C65.4848 21.2855 65.0506 20.726 64.4703 20.292C64.1815 20.0759 63.882 19.8689 63.584 19.6632C62.6176 18.9962 61.6512 18.3291 60.6851 17.6621C60.7918 17.9633 60.9536 18.2473 61.1146 18.53C61.7393 19.626 62.3637 20.7223 62.9883 21.8186C63.3229 22.4055 63.6744 23.0116 64.2627 23.4257C64.779 23.7891 65.4328 23.9721 66.0035 24.2698C66.5741 24.5675 67.0976 25.0596 67.0574 25.6323C67.2351 25.5504 67.413 25.4684 67.5907 25.3865C66.9363 24.8077 66.5372 24.0511 66.2321 23.2877Z" fill="#FF725E"/>
<path d="M67.2629 25.6961C68.7646 22.5745 68.8412 19.0937 69.8365 15.826C70.0981 16.1563 69.9123 16.5976 69.7751 16.9793C69.3388 18.1939 69.4912 19.5011 69.3094 20.7626C69.059 22.4986 68.182 24.115 67.3164 25.6983" fill="#84DA49"/>
<path d="M67.2855 25.5203C66.9954 25.1061 66.1238 24.5581 65.591 24.4027C65.0583 24.2474 64.491 24.205 63.9296 24.1744C62.2513 24.0831 60.5657 24.0884 58.8882 24.19C58.8337 24.1933 58.7717 24.2003 58.741 24.2393C58.6888 24.3057 58.7745 24.3876 58.8518 24.4324C59.8728 25.0236 61.0949 25.3547 62.3258 25.3732C63.1818 25.3861 64.0315 25.2519 64.8863 25.2097C65.741 25.1672 66.636 25.2255 67.3805 25.5892L67.2855 25.5203Z" fill="#FF725E"/>
<path d="M68.7721 23.9443C67.5837 24.7279 66.5152 25.6748 65.8186 26.8144C64.9141 28.2934 64.8056 31.2626 64.6095 32.9251C65.1538 31.1794 65.8002 29.4234 66.989 27.9326C68.6886 25.8017 71.4345 24.2886 72.5793 21.9C71.2724 22.5288 69.9604 23.1606 68.7721 23.9443Z" fill="#0F4332" fill-opacity="0.7"/>
<path d="M64.5468 18.3264C64.5545 18.322 64.6167 18.3869 64.7227 18.5081C64.8287 18.6293 64.9785 18.8069 65.1612 19.0277C65.3481 19.2466 65.5488 19.5194 65.8128 19.792C66.0731 20.0683 66.3918 20.3521 66.686 20.6857C66.9809 21.0183 67.2018 21.3813 67.3017 21.7401C67.401 22.1038 67.3334 22.4402 67.2694 22.7035C67.2049 22.9484 67.1498 23.1571 67.1043 23.3294C67.0649 23.4768 67.0426 23.5586 67.0328 23.5573C67.0244 23.5562 67.0295 23.472 67.0531 23.3215C67.0753 23.1708 67.123 22.9543 67.1767 22.6885C67.2287 22.4241 67.2817 22.1031 67.1821 21.7645C67.081 21.4266 66.8672 21.0788 66.5795 20.7545C66.2925 20.4289 65.9761 20.142 65.717 19.8582C65.4526 19.576 65.2593 19.2972 65.0832 19.0735C64.9104 18.8469 64.7726 18.6623 64.6797 18.5334C64.587 18.4043 64.5394 18.3308 64.5468 18.3264Z" fill="#84DA49"/>
</svg>
